<svg id="Layer_1" data-name="Layer 1" xmlns="http://www.w3.org/2000/svg" viewBox="0 0 20 14"><defs><style>.an_cls-1{fill:#f6f9fc;}.an_cls-2{fill:#8898aa;opacity:0.2;isolation:isolate;}.an_cls-3{fill:#e25950;}</style></defs><title>flag_58</title><path class="an_cls-1" d="M1.9,0H18.1A1.89,1.89,0,0,1,20,1.87V12.13A1.89,1.89,0,0,1,18.1,14H1.9A1.89,1.89,0,0,1,0,12.13V1.87A1.89,1.89,0,0,1,1.9,0Z"/><path class="an_cls-2" d="M18.1,14H1.9A1.89,1.89,0,0,1,0,12.13V1.87A1.89,1.89,0,0,1,1.9,0H18.1A1.89,1.89,0,0,1,20,1.87V12.13A1.89,1.89,0,0,1,18.1,14Zm.95-12.13A1,1,0,0,0,18.1.93H1.9A1,1,0,0,0,1,1.87V12.13a1,1,0,0,0,1,.94H18.1a1,1,0,0,0,.95-.94Z"/><path class="an_cls-3" d="M10,3.73A3.27,3.27,0,1,1,6.67,7,3.3,3.3,0,0,1,10,3.73Z"/></svg>