<svg id="Layer_1" data-name="Layer 1" xmlns="http://www.w3.org/2000/svg" viewBox="0 0 20.05 14.01"><defs><style>.an_cls-1{fill:#f6f9fc;}.an_cls-2{fill:none;stroke:#eaeef3;}.an_cls-3{fill:#e25950;}</style></defs><title>flag_46</title><path class="an_cls-1" d="M0,6.52v5.59A1.89,1.89,0,0,0,1.9,14H18.1A1.88,1.88,0,0,0,20,12.12h0V6.52Z" transform="translate(0.02)"/><path class="an_cls-2" d="M.48,7v5.12a1.41,1.41,0,0,0,1.42,1.4H18.1a1.41,1.41,0,0,0,1.42-1.39h0V7Z" transform="translate(0.02)"/><path class="an_cls-3" d="M1.9,0A1.88,1.88,0,0,0,0,1.85H0v5.6H20V1.86A1.88,1.88,0,0,0,18.1,0Z" transform="translate(0.02)"/></svg>