<svg id="Layer_1" data-name="Layer 1" xmlns="http://www.w3.org/2000/svg" viewBox="0 0 20 13.98"><defs><style>.cls-1{fill:#43458b;}.cls-2{fill:#f6f9fc;}.cls-3{fill:#e25950;}</style></defs><title>flag_7</title><path class="cls-1" d="M1.91,0H18.1A1.88,1.88,0,0,1,20,1.88V12.14A1.88,1.88,0,0,1,18.1,14H1.91A1.88,1.88,0,0,1,0,12.14V1.88A1.88,1.88,0,0,1,1.91,0Z" transform="translate(0 -0.02)"/><path class="cls-2" d="M0,5.3,3.33,3.06h0L8.5,6.53H6.82L3.33,4.19,0,6.43ZM8.57.11V1.24L5.24,3.48h0L.71.43A1.93,1.93,0,0,1,1.77,0L5.24,2.35Z" transform="translate(0 -0.02)"/><path class="cls-3" d="M8.49,6.54,5,4.2,1.52,6.54H0V6.43L5,3.08H5L8.57,5.47V6.54Zm-4.92-3h0L.14,1.19A1.86,1.86,0,0,1,.72.44L3.57,2.36,7.06,0H8.57V.13Z" transform="translate(0 -0.02)"/><path class="cls-2" d="M8.57,4.33H5.36V6.54H3.22V4.33H0V2.23H3.22V0H5.36V2.23H8.57Z" transform="translate(0 -0.02)"/><path class="cls-3" d="M8.57,3.75H4.76V6.54H3.81V3.75H0V2.82H3.81V0h.95v2.8H8.57Z" transform="translate(0 -0.02)"/><path class="cls-2" d="M16.42,6.08a.7.7,0,1,1,0-1.4.7.7,0,1,1,0,1.4ZM15.23,8.87a.47.47,0,1,1,0-.93.47.47,0,1,1,0,.93ZM14,4.21a.7.7,0,1,1,.71-.7.71.71,0,0,1-.71.7ZM11.18,7a.7.7,0,1,1,.72-.7A.7.7,0,0,1,11.18,7ZM14,10.74a.7.7,0,1,1,0,1.4.7.7,0,1,1,0-1.4ZM3.8,11.69l-.65.61a.17.17,0,0,1-.24,0,.19.19,0,0,1-.05-.13l.07-.89-.88-.14a.17.17,0,0,1-.14-.2A.16.16,0,0,1,2,10.82l.73-.51-.44-.77a.18.18,0,0,1,.06-.24.17.17,0,0,1,.14,0l.85.26.32-.84a.17.17,0,0,1,.22-.1.17.17,0,0,1,.1.1l.33.84.85-.26a.16.16,0,0,1,.21.11.18.18,0,0,1,0,.14l-.44.77.73.51a.17.17,0,0,1,0,.24.14.14,0,0,1-.11.07l-.87.14.06.89a.17.17,0,0,1-.15.18.18.18,0,0,1-.14,0Z" transform="translate(0 -0.02)"/></svg>