<svg id="Layer_1" data-name="Layer 1" xmlns="http://www.w3.org/2000/svg" viewBox="0 0 20 14"><defs><style>.an_cls-1{fill:#f6f9fc;}.an_cls-2{fill:#8898aa;opacity:0.2;isolation:isolate;}.an_cls-3{fill:#e25950;}.an_cls-4{fill:#555abf;}.an_cls-5{fill:#f5be58;}</style></defs><title>flag_91</title><path class="an_cls-1" d="M1.35.09,10.48,7,1.35,13.91A1.87,1.87,0,0,1,0,12.13V1.87A1.87,1.87,0,0,1,1.35.09Z"/><path class="an_cls-2" d="M1.9.93A1,1,0,0,0,1,1.87V12.13a1,1,0,0,0,1,.94h1V14h-1A1.89,1.89,0,0,1,0,12.13V1.87A1.89,1.89,0,0,1,1.9,0h1V.93Z"/><path class="an_cls-3" d="M18.1,14H1.9a1.88,1.88,0,0,1-1.22-.45L10.48,7l-.7-.47H20v5.6A1.89,1.89,0,0,1,18.1,14Z"/><path class="an_cls-4" d="M.68.45A1.88,1.88,0,0,1,1.9,0H18.1A1.89,1.89,0,0,1,20,1.87V7H10.48Z"/><path class="an_cls-5" d="M4.29,4.67a2.33,2.33,0,1,1,0,4.66A2.34,2.34,0,0,1,1.92,7h0A2.35,2.35,0,0,1,4.29,4.67Z"/></svg>