<svg id="Layer_1" data-name="Layer 1" xmlns="http://www.w3.org/2000/svg" viewBox="0 0 20 14"><defs><style>.an_cls-1{fill:#43458b;}.an_cls-2{fill:#f6f9fc;}.an_cls-3{fill:#eaeef3;}</style></defs><title>flag_48</title><path class="an_cls-1" d="M1.42,0A1.41,1.41,0,0,0,0,1.39H0V2.8H20V1.4A1.41,1.41,0,0,0,18.58,0Z"/><path class="an_cls-2" d="M1,2.8h18.1v8.4H1Z"/><path class="an_cls-1" d="M11.55,7,10.48,5.6h-1L8.45,7,9.52,8.4h1Zm.71,0,1.07,1.4h-1.9L10,10.73,8.57,8.4H6.67L7.74,7,6.67,5.6h1.9L10,3.27,11.43,5.6h1.9Z"/><path class="an_cls-1" d="M0,11.2v1.4A1.41,1.41,0,0,0,1.42,14H18.58A1.41,1.41,0,0,0,20,12.61V11.2Z"/><path class="an_cls-3" d="M0,2.8H1v8.4H0Zm19.05,0H20v8.4h-.95Z"/></svg>