<svg id="Layer_1" data-name="Layer 1" xmlns="http://www.w3.org/2000/svg" viewBox="0 0 20 14"><defs><style>.an_cls-1{fill:#0172c6;}.an_cls-2{fill:#f6f9fc;}.an_cls-3{fill:#e25950;}</style></defs><title>flag_53</title><path class="an_cls-1" d="M1.9,0H18.1A1.89,1.89,0,0,1,20,1.87V12.13A1.89,1.89,0,0,1,18.1,14H1.9A1.89,1.89,0,0,1,0,12.13V1.87A1.89,1.89,0,0,1,1.9,0Z"/><path class="an_cls-2" d="M20,5.6H7.22V0H4.36V5.6H0V8.4H4.36V14H7.22V8.4H20Z"/><path class="an_cls-3" d="M20,6.53H6.27V0h-1V6.53H0v.94H5.31V14h1V7.47H20Z"/></svg>