<svg id="Layer_1" data-name="Layer 1" xmlns="http://www.w3.org/2000/svg" viewBox="0 0 20 14"><defs><style>.an_cls-1{fill:#43458b;}.an_cls-2{fill:#fff;}.an_cls-3{fill:#fcd669;}.an_cls-4{fill:#eaeef3;}</style></defs><title>flag_83</title><path class="an_cls-1" d="M1.9,0A1.89,1.89,0,0,0,0,1.87v2.8H20V1.87A1.89,1.89,0,0,0,18.1,0Z"/><path class="an_cls-2" d="M0,4.67H20V9.33H0Z"/><path class="an_cls-1" d="M0,9.33v2.8A1.89,1.89,0,0,0,1.9,14H18.1A1.89,1.89,0,0,0,20,12.13V9.33Z"/><path class="an_cls-3" d="M10,8.4A1.4,1.4,0,1,1,11.43,7,1.42,1.42,0,0,1,10,8.4Zm0-1.87a.47.47,0,1,0,.48.47A.48.48,0,0,0,10,6.53Z"/><path class="an_cls-4" d="M0,4.67H1V9.33H0Zm19.05,0H20V9.33h-.95Z"/></svg>