<svg id="Layer_1" data-name="Layer 1" xmlns="http://www.w3.org/2000/svg" viewBox="0 0 20 13.99"><defs><style>.an_cls-1{fill:#e25950;}.an_cls-2{fill:#fff;}.an_cls-3{fill:#24b47e;}.an_cls-4{fill:#eaeef3;}</style></defs><title>flag_51</title><path class="an_cls-1" d="M1.9,0A1.88,1.88,0,0,0,0,1.87v2.8H20V1.88A1.89,1.89,0,0,0,18.1,0Z" transform="translate(0 -0.01)"/><path class="an_cls-2" d="M0,4.67H20V9.34H0Z" transform="translate(0 -0.01)"/><path d="M0,9.34v2.79A1.89,1.89,0,0,0,1.9,14H18.1A1.89,1.89,0,0,0,20,12.13V9.34Z" transform="translate(0 -0.01)"/><path class="an_cls-3" d="M7.62,5.6h1V8.4h-1Zm1.9,0h1V8.4h-1Zm1.91,0h1V8.4h-1Z" transform="translate(0 -0.01)"/><path class="an_cls-4" d="M0,4.67H1V9.34H0Zm19.05,0H20V9.34h-.95Z" transform="translate(0 -0.01)"/></svg>