<svg id="Layer_1" data-name="Layer 1" xmlns="http://www.w3.org/2000/svg" viewBox="0 0 20 14"><defs><style>.an_cls-1{fill:#43458b;}.an_cls-2{fill:#f6f9fc;}.an_cls-3{fill:#e25950;}</style></defs><title>flag_86</title><path class="an_cls-1" d="M1.9,0H18.1A1.89,1.89,0,0,1,20,1.87V12.13A1.89,1.89,0,0,1,18.1,14H1.9A1.89,1.89,0,0,1,0,12.13V1.87A1.89,1.89,0,0,1,1.9,0Z"/><path class="an_cls-2" d="M0,5.29,3.33,3.05h0L8.5,6.52H6.82L3.33,4.18,0,6.42ZM8.57.09V1.22L5.24,3.46h0L.71.41A1.93,1.93,0,0,1,1.77,0L5.24,2.33Z"/><path class="an_cls-3" d="M8.48,6.53,5,4.19,1.52,6.53H0V6.42L5,3.06H5l3.57,2.4V6.53ZM3.57,3.47h0L.14,1.17A1.93,1.93,0,0,1,.72.42L3.57,2.34,7.06,0H8.57V.11Z"/><path class="an_cls-2" d="M8.57,4.32H5.36V6.53H3.21V4.32H0V2.22H3.21V0H5.36V2.22H8.57Z"/><path class="an_cls-3" d="M8.57,3.73H4.76v2.8H3.81V3.73H0V2.8H3.81V0h.95V2.8H8.57Z"/><path class="an_cls-2" d="M15.45,6a1.14,1.14,0,1,1,1.13-1.17v0A1.15,1.15,0,0,1,15.45,6ZM13.54,4.14A1.14,1.14,0,1,1,14.67,3V3A1.14,1.14,0,0,1,13.54,4.14ZM12.8,5.81a1.16,1.16,0,0,1-2.32.06A1.14,1.14,0,0,1,11.61,4.7h0A1.15,1.15,0,0,1,12.8,5.81Zm.74,3.52a1.17,1.17,0,0,1,1.2,1.11,1.16,1.16,0,0,1-2.32.06v0A1.14,1.14,0,0,1,13.54,9.33Z"/><path class="an_cls-3" d="M15.42,5.48a.64.64,0,1,1,.65-.64.65.65,0,0,1-.65.64Zm-1.91,5.6a.64.64,0,1,1,0-1.28.65.65,0,0,1,.66.64h0a.66.66,0,0,1-.66.64Zm0-7.46A.65.65,0,1,1,14.16,3h0a.65.65,0,0,1-.65.65Zm-1.9,2.8a.65.65,0,1,1,.68-.62.75.75,0,0,1-.09.3A.7.7,0,0,1,11.61,6.42Z"/></svg>