<svg id="Layer_1" data-name="Layer 1" xmlns="http://www.w3.org/2000/svg" viewBox="0 0 20 14"><defs><style>.an_cls-1{fill:#f7f7f7;}.an_cls-2{fill:#e9ebf0;}.an_cls-3{fill:#e25950;}.an_cls-4{fill:#43458b;}.an_cls-5{fill:#fff;}</style></defs><title>flag_17</title><path class="an_cls-1" d="M8.09,7.93V.46h10a1.43,1.43,0,0,1,1.44,1.4h0V7.93Z" transform="translate(0 0)"/><path class="an_cls-2" d="M18.08.93a.94.94,0,0,1,1,.92h0v5.6H8.57V.93h9.51m0-.93H7.62V8.4H20V1.86A1.89,1.89,0,0,0,18.09,0Z" transform="translate(0 0)"/><path class="an_cls-3" d="M0,7.46v4.67A1.89,1.89,0,0,0,1.9,14H18.1A1.88,1.88,0,0,0,20,12.15h0V7.46Z" transform="translate(0 0)"/><path class="an_cls-4" d="M1.9,0A1.87,1.87,0,0,0,0,1.85H0V7.46H8.57V0Z" transform="translate(0 0)"/><path class="an_cls-5" d="M6,3.19H4.92a.15.15,0,0,1-.14-.1l-.35-1A.15.15,0,0,0,4.24,2a.13.13,0,0,0-.1.1l-.35,1a.15.15,0,0,1-.14.1H2.53a.16.16,0,0,0-.16.15.17.17,0,0,0,.07.13l.9.64a.15.15,0,0,1,.05.17l-.33,1a.14.14,0,0,0,.09.19.14.14,0,0,0,.14,0L4.2,4.9a.15.15,0,0,1,.18,0l.9.59a.16.16,0,0,0,.21,0,.18.18,0,0,0,0-.14l-.35-1a.15.15,0,0,1,.06-.17l.9-.64A.15.15,0,0,0,6,3.19Z" transform="translate(0 0)"/></svg>