<svg id="Layer_1" data-name="Layer 1" xmlns="http://www.w3.org/2000/svg" viewBox="0 0 20 14.02"><defs><style>.an_cls-1{fill:#555abf;}.an_cls-2{fill:#f6f9fc;}.an_cls-3{fill:#eaeef3;}.an_cls-4{fill:#efcf57;}</style></defs><title>flag_110</title><path class="an_cls-1" d="M1.9,0A1.89,1.89,0,0,0,0,1.85v2.8H20V1.86A1.89,1.89,0,0,0,18.1,0Z" transform="translate(0 0.02)"/><path class="an_cls-2" d="M0,4.65H20V9.33H0Z" transform="translate(0 0.02)"/><path class="an_cls-3" d="M0,4.65H1V9.33H0Zm19.05,0H20V9.33h-.95Z" transform="translate(0 0.02)"/><path class="an_cls-1" d="M0,9.33v2.8A1.89,1.89,0,0,0,1.9,14H18.1A1.89,1.89,0,0,0,20,12.13V9.33Z" transform="translate(0 0.02)"/><path class="an_cls-4" d="M10,8.39A1.4,1.4,0,1,1,11.43,7,1.41,1.41,0,0,1,10,8.39Zm0-1.87a.47.47,0,1,0,.48.47A.48.48,0,0,0,10,6.52Z" transform="translate(0 0.02)"/></svg>