<svg id="Layer_1" data-name="Layer 1" xmlns="http://www.w3.org/2000/svg" viewBox="0 0 20 13.99"><defs><style>.an_cls-1{fill:#f79a59;}.an_cls-2{fill:#fff;}.an_cls-3{fill:#24b47e;}.an_cls-4{fill:#6772e5;}.an_cls-5{fill:#eaeef3;}</style></defs><title>flag_50</title><path class="an_cls-1" d="M1.9,0A1.88,1.88,0,0,0,0,1.87v2.8H20V1.88A1.89,1.89,0,0,0,18.1,0Z" transform="translate(0 -0.01)"/><path class="an_cls-2" d="M0,4.67H20V9.34H0Z" transform="translate(0 -0.01)"/><path class="an_cls-3" d="M0,9.34v2.79A1.89,1.89,0,0,0,1.9,14H18.1A1.89,1.89,0,0,0,20,12.13V9.34Z" transform="translate(0 -0.01)"/><path class="an_cls-4" d="M10,8.4A1.4,1.4,0,1,1,11.43,7,1.41,1.41,0,0,1,10,8.4Zm0-1.86a.47.47,0,1,0,.48.46A.48.48,0,0,0,10,6.54Z" transform="translate(0 -0.01)"/><path class="an_cls-5" d="M0,4.67H1V9.34H0Zm19.05,0H20V9.34h-.95Z" transform="translate(0 -0.01)"/></svg>