<svg id="Layer_1" data-name="Layer 1" xmlns="http://www.w3.org/2000/svg" viewBox="0 0 20 14"><defs><style>.an_cls-1{fill:#f6f9fc;}.an_cls-2{fill:#8898aa;opacity:0.2;isolation:isolate;}.an_cls-3{fill:#24b47e;}.an_cls-4{fill:#fff;}</style></defs><title>flag_92</title><path class="an_cls-1" d="M1.9,0H18.1A1.89,1.89,0,0,1,20,1.87V12.13A1.89,1.89,0,0,1,18.1,14H1.9A1.89,1.89,0,0,1,0,12.13V1.87A1.89,1.89,0,0,1,1.9,0Z"/><path class="an_cls-2" d="M18.1,14H1.9A1.89,1.89,0,0,1,0,12.13V1.87A1.89,1.89,0,0,1,1.9,0H18.1A1.89,1.89,0,0,1,20,1.87V12.13A1.89,1.89,0,0,1,18.1,14Zm.95-12.13A1,1,0,0,0,18.1.93H1.9A1,1,0,0,0,1,1.87V12.13a1,1,0,0,0,1,.94H18.1a1,1,0,0,0,.95-.94Z"/><path class="an_cls-3" d="M5.71,0V14H18.1A1.88,1.88,0,0,0,20,12.14V1.86A1.88,1.88,0,0,0,18.1,0Z"/><path class="an_cls-4" d="M12.32,1.87a3.9,3.9,0,0,0-2,3.32,4.24,4.24,0,0,0,4.44,4,4.79,4.79,0,0,0,2.35-.61,4.49,4.49,0,0,1-4.05,2.61A4.62,4.62,0,0,1,8.57,6.5,4.65,4.65,0,0,1,12.32,1.87Z"/><ellipse class="an_cls-4" cx="15.24" cy="4.67" rx="0.95" ry="0.93"/></svg>