<svg id="Layer_1" data-name="Layer 1" xmlns="http://www.w3.org/2000/svg" viewBox="0 0 20 14"><defs><style>.an_cls-1{fill:#f6f9fc;}.an_cls-2{fill:#8898aa;opacity:0.1;isolation:isolate;}.an_cls-3{fill:#24b47e;}.an_cls-4{fill:#e25950;}.an_cls-5{fill:#b5562b;}</style></defs><title>flag_78</title><path class="an_cls-1" d="M5.71,0h8.58V14H5.71Z"/><path class="an_cls-2" d="M5.71,14v-.93h8.58V14Zm0-14h8.58V.93H5.71Z"/><path class="an_cls-3" d="M1.9,0H6.67V14H1.9A1.89,1.89,0,0,1,0,12.13V1.87A1.89,1.89,0,0,1,1.9,0Z"/><path class="an_cls-4" d="M18.1,14H13.33V0H18.1A1.89,1.89,0,0,1,20,1.87V12.13A1.89,1.89,0,0,1,18.1,14Z"/><path class="an_cls-3" d="M8.17,7.47a1.82,1.82,0,0,0,3.64,0h.81a2.62,2.62,0,0,1-5.24.09V7.48h.79Z"/><path class="an_cls-5" d="M10,5.6A1.4,1.4,0,1,1,8.57,7,1.42,1.42,0,0,1,10,5.6Z"/></svg>