<svg id="Layer_1" data-name="Layer 1" xmlns="http://www.w3.org/2000/svg" viewBox="0 0 20 14"><defs><style>.an_cls-1{fill:#f6f9fc;}.an_cls-2{fill:#24b47e;}.an_cls-3{fill:#e25950;}.an_cls-4{fill:#8898aa;opacity:0.2;isolation:isolate;}</style></defs><title>flag_26</title><path class="an_cls-1" d="M5.71,0V14H18.1A1.88,1.88,0,0,0,20,12.14V1.86A1.88,1.88,0,0,0,18.1,0Z" transform="translate(0 0)"/><path class="an_cls-2" d="M1.9,0A1.88,1.88,0,0,0,0,1.86V12.14A1.88,1.88,0,0,0,1.89,14H9.52V0Z" transform="translate(0 0)"/><path class="an_cls-3" d="M9.52,2.83v.95a3.25,3.25,0,0,0,0,6.44v.95A4.26,4.26,0,0,1,4.79,7.46,4.22,4.22,0,0,1,8.58,2.82a4.92,4.92,0,0,1,.94,0Z" transform="translate(0 0)"/><path class="an_cls-3" d="M12.84,5A3.49,3.49,0,0,0,10.1,3.73,3.31,3.31,0,0,0,6.76,7a3.31,3.31,0,0,0,3.34,3.27A3.49,3.49,0,0,0,12.84,9a4.33,4.33,0,0,1-5.79,1.76A4.15,4.15,0,0,1,5.26,5.05a4.32,4.32,0,0,1,5.79-1.76,4.22,4.22,0,0,1,1.79,1.76Z" transform="translate(0 0)"/><ellipse class="an_cls-3" cx="11.91" cy="7" rx="1.43" ry="1.4"/><path class="an_cls-4" d="M18.09.93a1,1,0,0,1,1,.94V12.13a1,1,0,0,1-.95.94H9.52V14H18.1A1.89,1.89,0,0,0,20,12.13V1.87A1.89,1.89,0,0,0,18.09,0H9.52V.93Z" transform="translate(0 0)"/></svg>