<svg id="Layer_1" data-name="Layer 1" xmlns="http://www.w3.org/2000/svg" viewBox="0 0 20 14"><defs><style>.an_cls-1{fill:#45b2e8;}.an_cls-2{fill:#f6f9fc;}.an_cls-3{fill:#24b47e;}.an_cls-4{fill:#eaeef3;}</style></defs><title>flag_40</title><path class="an_cls-1" d="M1.91,0A1.89,1.89,0,0,0,0,1.86V12.14A1.88,1.88,0,0,0,1.9,14H6.67V0ZM13.33,0V14h4.76A1.89,1.89,0,0,0,20,12.14V1.86A1.88,1.88,0,0,0,18.1,0H13.33Z" transform="translate(0 0)"/><path class="an_cls-2" d="M6.67,0h6.66V14H6.67Z" transform="translate(0 0)"/><path class="an_cls-3" d="M10,8.4A1.4,1.4,0,1,1,11.43,7,1.42,1.42,0,0,1,10,8.4Zm0-1.87a.47.47,0,1,0,.48.47A.48.48,0,0,0,10,6.53Z" transform="translate(0 0)"/><path class="an_cls-4" d="M6.67,14v-.93h6.66V14ZM6.67.93V0h6.66V.93Z" transform="translate(0 0)"/></svg>