<svg id="Layer_1" data-name="Layer 1" xmlns="http://www.w3.org/2000/svg" viewBox="0 0 20 14"><defs><style>.an_cls-1{fill:#e25950;}.an_cls-2{fill:#fcd669;}</style></defs><title>flag_122</title><path class="an_cls-1" d="M1.9,0H18.1A1.89,1.89,0,0,1,20,1.87V12.13A1.89,1.89,0,0,1,18.1,14H1.9A1.89,1.89,0,0,1,0,12.13V1.87A1.89,1.89,0,0,1,1.9,0Z"/><path class="an_cls-2" d="M13.94,5.6h-2.5a.35.35,0,0,1-.33-.24L10.33,3a.34.34,0,0,0-.66,0L8.9,5.37a.35.35,0,0,1-.33.24H6.07a.34.34,0,0,0-.36.33.35.35,0,0,0,.15.28l2,1.44A.33.33,0,0,1,8,8.05l-.77,2.33a.34.34,0,0,0,.53.38l2-1.33a.34.34,0,0,1,.41,0l2,1.33a.35.35,0,0,0,.54-.38L12,8.05a.33.33,0,0,1,.13-.39l2-1.44a.33.33,0,0,0,.13-.38.35.35,0,0,0-.33-.24Z"/></svg>