<svg id="Layer_1" data-name="Layer 1" xmlns="http://www.w3.org/2000/svg" viewBox="0 0 20 14"><defs><style>.an_cls-1{fill:#f6f9fc;}.an_cls-2{fill:#012b7f;}.an_cls-3{fill:#eaeef3;}.an_cls-4{fill:#fcd669;}</style></defs><title>flag_120</title><path class="an_cls-1" d="M9.52,0H18.1A1.89,1.89,0,0,1,20,1.87V12.13H9.52Z" transform="translate(0 0)"/><path class="an_cls-2" d="M1,11.2h18.1v1.87H1Z" transform="translate(0 0)"/><path class="an_cls-3" d="M19.05,1.4H20V11.67h-.95Z" transform="translate(0 0)"/><path class="an_cls-1" d="M1.9,0H9.52V11.2H0V1.87A1.89,1.89,0,0,1,1.9,0Z" transform="translate(0 0)"/><ellipse class="an_cls-4" cx="4.29" cy="4.2" rx="2.38" ry="2.33"/><path class="an_cls-2" d="M1,7.78h18.1V9.64H1ZM8.57,4.36H19.05V6.23H8.57Zm0-3.42H18a1,1,0,0,1,1,1h0V2.8H8.57Z" transform="translate(0 0)"/><path class="an_cls-3" d="M0,2.8H1v9.33H0Z" transform="translate(0 0)"/><path class="an_cls-3" d="M18.1.94a1,1,0,0,1,.95.93v2.8H20V1.87A1.89,1.89,0,0,0,18.1,0H1.9A1.89,1.89,0,0,0,0,1.87v2.8H1V1.87a1,1,0,0,1,1-.93H18.1m0,12.13a1,1,0,0,0,.95-.94V9.33H20v2.8A1.89,1.89,0,0,1,18.1,14H1.9A1.89,1.89,0,0,1,0,12.13V9.33H1v2.8a1,1,0,0,0,1,.94H18.1" transform="translate(0 0)"/></svg>