<svg id="Layer_1" data-name="Layer 1" xmlns="http://www.w3.org/2000/svg" viewBox="0 0 20 14"><defs><style>.an_cls-1{fill:#45b2e8;}.an_cls-2{fill:#f6f9fc;}.an_cls-3{fill:#eaeef3;}</style></defs><title>flag_43</title><path class="an_cls-1" d="M1.9,0A1.89,1.89,0,0,0,0,1.87v2.8H20V1.87A1.89,1.89,0,0,0,18.1,0Z"/><path class="an_cls-2" d="M0,4.67H20V9.33H0Z"/><path class="an_cls-1" d="M0,9.33v2.8A1.89,1.89,0,0,0,1.9,14H18.1A1.89,1.89,0,0,0,20,12.13V9.33Z"/><path class="an_cls-3" d="M0,4.67H1V9.33H0Zm19.05,0H20V9.33h-.95Z"/><path class="an_cls-1" d="M9.52,7a.48.48,0,1,1,.48.47A.48.48,0,0,1,9.52,7ZM6.67,6.07a.48.48,0,1,1,.47.46A.47.47,0,0,1,6.67,6.07Zm0,1.86a.48.48,0,1,1,.47.47A.47.47,0,0,1,6.67,7.93Zm5.71,0a.48.48,0,1,1,.48.47A.47.47,0,0,1,12.38,7.93Zm0-1.86a.48.48,0,1,1,.48.46A.47.47,0,0,1,12.38,6.07Z"/></svg>