<svg id="Layer_1" data-name="Layer 1" xmlns="http://www.w3.org/2000/svg" viewBox="0 0 20 14"><defs><style>.an_cls-1{fill:#43458b;}.an_cls-2{fill:#fce883;}</style></defs><title>flag_31</title><path class="an_cls-1" d="M1.9,0H18.1A1.89,1.89,0,0,1,20,1.87V12.13A1.89,1.89,0,0,1,18.1,14H1.9A1.89,1.89,0,0,1,0,12.13V1.87A1.89,1.89,0,0,1,1.9,0Z"/><path class="an_cls-2" d="M14.2,7.67a.79.79,0,1,1,.8-.79h0a.79.79,0,0,1-.8.79ZM12.39,4.46a.78.78,0,0,1,0-1.12.81.81,0,0,1,1.14,0,.77.77,0,0,1,0,1.12h0a.82.82,0,0,1-1.13,0ZM13.5,9.31a.78.78,0,0,1,.05,1.12.82.82,0,0,1-1.14.05.78.78,0,0,1-.05-1.12h0l0,0a.82.82,0,0,1,1.12,0ZM9.88,11.9a.79.79,0,1,1,0-1.58.8.8,0,0,1,.81.79h0a.8.8,0,0,1-.81.79Zm0-8.46a.79.79,0,1,1,.8-.79h0a.78.78,0,0,1-.8.79Zm-3.58,7a.77.77,0,0,1,0-1.12.82.82,0,0,1,1.14,0,.78.78,0,0,1,0,1.12h0a.81.81,0,0,1-1.13,0Zm0-6a.78.78,0,0,1,0-1.12.82.82,0,0,1,1.15,0,.78.78,0,0,1,0,1.12l0,0a.83.83,0,0,1-1.1,0Zm.11,2.42a.81.81,0,1,1-.81-.78h0a.79.79,0,0,1,.81.78Z"/></svg>