<svg id="Layer_1" data-name="Layer 1" xmlns="http://www.w3.org/2000/svg" viewBox="0 0 20.01 14"><defs><style>.an_cls-1{fill:#f6f9fc;}.an_cls-2{fill:#8898aa;opacity:0.2;isolation:isolate;}.an_cls-3{fill:#e25950;}.an_cls-4{fill:#43458b;}</style></defs><title>flag_22</title><path class="an_cls-1" d="M19.05,6.53V1.87A1,1,0,0,0,18.1.93H1.9A1.45,1.45,0,0,0,1.6,1l8.88,5.54Zm-18.42,7a1.87,1.87,0,0,0,.57.35A1.87,1.87,0,0,1,.63,13.51Z"/><path class="an_cls-2" d="M.63,13.51a1.87,1.87,0,0,0,.57.35A1.87,1.87,0,0,1,.63,13.51Z"/><path class="an_cls-1" d="M18.1,0H1.9A1.88,1.88,0,0,0,.68.45L.8.5,1.6,1A1.45,1.45,0,0,1,1.9.93H18.1a1,1,0,0,1,.95.94V6.53H20V1.87A1.89,1.89,0,0,0,18.1,0Z"/><path class="an_cls-2" d="M18.1,0H1.9A1.88,1.88,0,0,0,.68.45L.8.5,1.6,1A1.45,1.45,0,0,1,1.9.93H18.1a1,1,0,0,1,.95.94V6.53H20V1.87A1.89,1.89,0,0,0,18.1,0Z"/><path class="an_cls-3" d="M1.9,14h0a1.86,1.86,0,0,1-.7-.14A1.86,1.86,0,0,0,1.9,14Zm16.2,0h0A1.87,1.87,0,0,0,20,12.15h0v0A1.9,1.9,0,0,1,18.1,14Z"/><path class="an_cls-3" d="M19.05,6.53H10.48L1.47,13l-.7.5a.35.35,0,0,1-.14.06A1.87,1.87,0,0,0,1.9,14H18.1A1.89,1.89,0,0,0,20,12.13V6.53Z"/><path class="an_cls-4" d="M0,12.51a.49.49,0,0,1,0-.12.49.49,0,0,0,0,.12Zm0,.1a1.89,1.89,0,0,0,.56.9,1.89,1.89,0,0,1-.56-.9ZM0,12.13H0a1.15,1.15,0,0,0,0,.26A1.15,1.15,0,0,1,0,12.13Zm.07.48,0-.1Z"/><path class="an_cls-4" d="M1.6,1,.8.5.68.45A1.83,1.83,0,0,0,0,1.87V12.13a1.09,1.09,0,0,0,0,.26.49.49,0,0,0,0,.12l0,.1a1.89,1.89,0,0,0,.56.9.35.35,0,0,0,.14-.06l.7-.5,9-6.42Z"/></svg>