<svg id="Layer_1" data-name="Layer 1" xmlns="http://www.w3.org/2000/svg" viewBox="0 0 20.04 14.05"><defs><style>.an_cls-1{fill:#f6f9fc;}.an_cls-2{fill:#dfe5eb;}.an_cls-3{fill:#e25950;}.an_cls-4{fill-opacity:0.9;}.an_cls-5{fill:#43458b;}</style></defs><title>flag_62</title><path class="an_cls-1" d="M1.88,0,18.07,0A1.89,1.89,0,0,1,20,1.84L20,12.1A1.89,1.89,0,0,1,18.12,14L1.93,14A1.89,1.89,0,0,1,0,12.17L0,1.91A1.9,1.9,0,0,1,1.88,0Z" transform="translate(0.02 0.02)"/><path class="an_cls-2" d="M1.88,0l16.2,0A1.89,1.89,0,0,1,20,1.83l0,10.28A1.88,1.88,0,0,1,18.12,14L1.92,14A1.88,1.88,0,0,1,0,12.18L0,1.9A1.89,1.89,0,0,1,1.88,0Zm0,.94a1,1,0,0,0-.95.93L1,12.17a1,1,0,0,0,1,.93L18.12,13a.93.93,0,0,0,.94-.94L19,1.84a1,1,0,0,0-1-.93Z" transform="translate(0.02 0.02)"/><path class="an_cls-3" d="M6.67,7a3.33,3.33,0,0,1,6.66,0A3.17,3.17,0,0,1,13,8.39l-6,0A3.18,3.18,0,0,1,6.67,7Z" transform="translate(0.02 0.02)"/><path class="an_cls-4" d="M13.32,3v-.2h1.15l1.24,1.67v.19H14.56Zm-9,1.51L5.5,2.82H6.65V3L5.43,4.69H4.28ZM13.35,11l1.22-1.68h1.15v.19L14.5,11.19H13.35ZM4.29,9.55V9.36H5.44L6.68,11v.19H5.53Z" transform="translate(0.02 0.02)"/><path class="an_cls-5" d="M11.59,6.29a1.66,1.66,0,0,1,1.7,1.27,3.32,3.32,0,0,1-3.21,2.71,3.51,3.51,0,0,1-3-1.73A3.13,3.13,0,0,1,6.67,7,3,3,0,0,1,7,5.61v.15C7,6.39,7,7.7,8.65,7.7S10.22,6.29,11.59,6.29Z" transform="translate(0.02 0.02)"/></svg>