<svg id="Layer_1" data-name="Layer 1" xmlns="http://www.w3.org/2000/svg" viewBox="0 0 20 14"><defs><style>.an_cls-1{fill:#e25950;}.an_cls-2{fill:#fedc32;}</style></defs><title>flag_59</title><path class="an_cls-1" d="M1.9,0H18.1A1.89,1.89,0,0,1,20,1.87V12.13A1.89,1.89,0,0,1,18.1,14H1.9A1.89,1.89,0,0,1,0,12.13V1.87A1.89,1.89,0,0,1,1.9,0Z"/><path class="an_cls-2" d="M12.86,10.27a.47.47,0,1,1,.47-.47A.47.47,0,0,1,12.86,10.27ZM7.14,4.67a.47.47,0,1,1,.48-.47A.47.47,0,0,1,7.14,4.67Zm5.72,0a.47.47,0,1,1,.47-.47A.47.47,0,0,1,12.86,4.67Zm-5.72,5.6a.47.47,0,1,1,.48-.47A.47.47,0,0,1,7.14,10.27ZM10,3.73a.47.47,0,1,1,.48-.46A.48.48,0,0,1,10,3.73ZM6.19,7.47A.47.47,0,1,1,6.67,7,.48.48,0,0,1,6.19,7.47ZM10,11.2a.47.47,0,1,1,.48-.47A.48.48,0,0,1,10,11.2Zm3.81-3.73A.47.47,0,1,1,14.29,7,.48.48,0,0,1,13.81,7.47ZM10,9.33A2.33,2.33,0,1,1,12.38,7,2.36,2.36,0,0,1,10,9.33Z"/></svg>