<svg id="Layer_1" data-name="Layer 1" xmlns="http://www.w3.org/2000/svg" viewBox="0 0 20 13.99"><defs><style>.an_cls-1{fill:#e25950;}.an_cls-2{fill:#fff;}</style></defs><title>flag_42</title><path class="an_cls-1" d="M1.9,0H18.1A1.88,1.88,0,0,1,20,1.87V12.13A1.89,1.89,0,0,1,18.1,14H1.9A1.89,1.89,0,0,1,0,12.13V1.87A1.88,1.88,0,0,1,1.9,0Z" transform="translate(0 -0.01)"/><path class="an_cls-2" d="M9.82,6.91A2.18,2.18,0,0,1,11.5,5.14c1.33-.51,2.61.83,2.78,1.57-.06,0-.14,0-.26-.09a.47.47,0,0,0-.53,0c-.37.24-.45.44-.88.59a1.2,1.2,0,0,1-1.18-.31,1.19,1.19,0,0,0-1.61,0m-.26.41a2.21,2.21,0,0,1-2.42.47c-1.38-.36-1.61-2.17-1.3-2.87.15,0,.13.54.57.55a2.54,2.54,0,0,0,.39,0,1.34,1.34,0,0,1,.66,0,1.15,1.15,0,0,1,.78.93,1.15,1.15,0,0,0,1.32.89m.35.09a2.13,2.13,0,0,1-.34,2.4c-.79,1.16-2.62.78-3.19.27,0-.14.56.05.71-.35s.11-.61.38-1a1.19,1.19,0,0,1,1.15-.42,1.16,1.16,0,0,0,1.29-.93M10,7.12a2.21,2.21,0,0,1,2.24,1c.9,1.08,0,2.68-.67,3.07-.13-.08.22-.51-.13-.78s-.57-.28-.84-.63a1.13,1.13,0,0,1-.07-1.2A1.12,1.12,0,0,0,10,7.12M9.5,7A2.14,2.14,0,0,1,8.34,4.87C8.28,3.48,10,2.73,10.75,2.82c.06.14-.48.28-.37.69s.29.56.29,1a1.15,1.15,0,0,1-.68,1A1.13,1.13,0,0,0,9.5,7" transform="translate(0 -0.01)"/></svg>