<svg id="Layer_1" data-name="Layer 1" xmlns="http://www.w3.org/2000/svg" viewBox="0 0 20.01 14"><defs><style>.an_cls-1{fill:#24b47e;}.an_cls-2,.an_cls-5,.an_cls-6{fill:#fff;}.an_cls-3{fill:#e25950;}.an_cls-4{fill:none;stroke:#e25950;}.an_cls-5{opacity:0.7;}.an_cls-5,.an_cls-6{isolation:isolate;}.an_cls-6{opacity:0.5;}.an_cls-7{fill:#eaeef3;}</style></defs><title>flag_52</title><path class="an_cls-1" d="M1.9,0A1.89,1.89,0,0,0,0,1.87v2.8H20V1.87A1.89,1.89,0,0,0,18.1,0Z"/><path class="an_cls-2" d="M0,4.67H20V9.33H0Z"/><path class="an_cls-3" d="M0,9.33v2.8A1.91,1.91,0,0,0,1.9,14H18.1A1.9,1.9,0,0,0,20,12.13V9.33Z"/><ellipse class="an_cls-4" cx="10" cy="7" rx="0.95" ry="0.93"/><path class="an_cls-5" d="M1,3.27a.48.48,0,1,1,.47.46A.47.47,0,0,1,1,3.27Zm1.9,0a.48.48,0,1,1,.48.46A.47.47,0,0,1,2.86,3.27Zm1.91,0a.47.47,0,0,1,.47-.47.47.47,0,1,1,0,.93A.47.47,0,0,1,4.77,3.27Zm1.9,0a.48.48,0,1,1,.48.46A.47.47,0,0,1,6.67,3.27Zm1.9,0a.48.48,0,1,1,.48.46A.48.48,0,0,1,8.57,3.27Zm1.91,0a.48.48,0,1,1,.47.46A.47.47,0,0,1,10.48,3.27Zm1.9,0a.48.48,0,1,1,.48.46A.48.48,0,0,1,12.38,3.27Zm1.91,0a.48.48,0,1,1,.47.46A.47.47,0,0,1,14.29,3.27Zm1.9,0a.48.48,0,1,1,.48.46A.47.47,0,0,1,16.19,3.27Zm1.91,0a.47.47,0,0,1,.47-.47.47.47,0,1,1,0,.93A.47.47,0,0,1,18.1,3.27Z"/><path class="an_cls-6" d="M1,10.73a.48.48,0,1,1,.47.47A.47.47,0,0,1,1,10.73Zm1.9,0a.48.48,0,1,1,.48.47A.47.47,0,0,1,2.86,10.73Zm1.91,0a.47.47,0,0,1,.47-.46.47.47,0,1,1,0,.93A.47.47,0,0,1,4.77,10.73Zm1.9,0a.48.48,0,1,1,.48.47A.47.47,0,0,1,6.67,10.73Zm1.9,0a.48.48,0,1,1,.48.47A.48.48,0,0,1,8.57,10.73Zm1.91,0a.48.48,0,1,1,.47.47A.47.47,0,0,1,10.48,10.73Zm1.9,0a.48.48,0,1,1,.48.47A.48.48,0,0,1,12.38,10.73Zm1.91,0a.48.48,0,1,1,.47.47A.47.47,0,0,1,14.29,10.73Zm1.9,0a.48.48,0,1,1,.48.47A.47.47,0,0,1,16.19,10.73Zm1.91,0a.47.47,0,0,1,.47-.46.47.47,0,1,1,0,.93A.47.47,0,0,1,18.1,10.73Z"/><path class="an_cls-7" d="M0,4.67H1V9.33H0Zm19.05,0H20V9.33h-.95Z"/></svg>