<svg id="Layer_1" data-name="Layer 1" xmlns="http://www.w3.org/2000/svg" viewBox="0 0 20 14"><defs><style>.an_cls-1{fill:#e25950;}.an_cls-2{fill:#f6f9fc;}.an_cls-3,.an_cls-4{fill:#555abf;}.an_cls-3{opacity:0.1;isolation:isolate;}</style></defs><title>flag_85</title><path class="an_cls-1" d="M1.9,0H18.1A1.89,1.89,0,0,1,20,1.87V12.13A1.89,1.89,0,0,1,18.1,14H1.9A1.89,1.89,0,0,1,0,12.13V1.87A1.89,1.89,0,0,1,1.9,0Z"/><path class="an_cls-2" d="M20,8.4H8.57V14H5.71V8.4H0V5.6H5.71V0H8.57V5.6H20Z"/><path class="an_cls-3" d="M19.05,8.4V5.6H20V8.4ZM5.71,13.07H8.57V14H5.71ZM5.71,0H8.57V.93H5.71ZM0,5.6H1V8.4H0Z"/><path class="an_cls-4" d="M20,7.47H7.62V14h-1V7.47H0V6.53H6.67V0h1V6.53H20Z"/></svg>