<svg id="Layer_1" data-name="Layer 1" xmlns="http://www.w3.org/2000/svg" viewBox="0 0 20 14"><defs><style>.an_cls-1{fill:#f6f9fc;}.an_cls-2{fill:#43458b;}.an_cls-3{fill:#e25950;}.an_cls-4{fill:#fff;}</style></defs><title>flag_61</title><path class="an_cls-1" d="M0,2.8H20v8.4H0Z"/><path class="an_cls-2" d="M1.42,0A1.41,1.41,0,0,0,0,1.39H0V2.8H20V1.4A1.41,1.41,0,0,0,18.58,0Z"/><path class="an_cls-3" d="M0,3.73H20v6.54H0Z"/><path class="an_cls-2" d="M0,11.2v1.4A1.41,1.41,0,0,0,1.42,14H18.58A1.41,1.41,0,0,0,20,12.61V11.2Z"/><path class="an_cls-4" d="M5.24,8.4A1.4,1.4,0,1,0,3.81,7,1.42,1.42,0,0,0,5.24,8.4Z"/></svg>