<svg id="Layer_1" data-name="Layer 1" xmlns="http://www.w3.org/2000/svg" viewBox="0 0 20 14"><defs><style>.an_cls-1,.an_cls-3{fill:#e25950;}.an_cls-2{fill:#f6f9fc;}.an_cls-3{opacity:0.2;}.an_cls-3,.an_cls-6{isolation:isolate;}.an_cls-4{fill:#43458b;}.an_cls-5,.an_cls-6{fill:#fff;}.an_cls-6{opacity:0.5;}</style></defs><title>flag_119</title><path class="an_cls-1" d="M18.1,14H1.9A1.89,1.89,0,0,1,0,12.13V5.6H7.62V0H18.1A1.89,1.89,0,0,1,20,1.87V12.13A1.89,1.89,0,0,1,18.1,14Z"/><path class="an_cls-2" d="M0,10.27H20v.93H0ZM0,8.4H20v.93H0ZM0,6.53H20v.94H0ZM7.62,4.67H20V5.6H7.62Zm0-1.87H20v.93H7.62Zm0-1.87H19.74a1.85,1.85,0,0,1,.26.94H7.62ZM19.74,13.07H.26A1.85,1.85,0,0,1,0,12.13H20A1.85,1.85,0,0,1,19.74,13.07Z"/><path class="an_cls-3" d="M18.1,14H1.9A1.89,1.89,0,0,1,0,12.13V5.6H1v6.53a1,1,0,0,0,1,.94H18.1a1,1,0,0,0,.95-.94V1.87A1,1,0,0,0,18.1.93H7.62V0H18.1A1.89,1.89,0,0,1,20,1.87V12.13A1.89,1.89,0,0,1,18.1,14Z"/><path class="an_cls-4" d="M0,6.53V1.87A1.89,1.89,0,0,1,1.9,0H8.57V6.53Z"/><path class="an_cls-5" d="M7.36,2.25a.67.67,0,0,1-.69-.63A.67.67,0,0,1,7.32.94.66.66,0,0,1,8,1.57v0A.66.66,0,0,1,7.36,2.25ZM7.08,3.46a.67.67,0,0,1-.68.65.66.66,0,1,1,.68-.65ZM5.46,2.25a.66.66,0,1,1,.64-.68v0A.66.66,0,0,1,5.46,2.25ZM5.17,3.46A.67.67,0,1,1,4.5,2.8a.67.67,0,0,1,.67.66ZM3.55,2.25a.67.67,0,0,1-.69-.63A.67.67,0,0,1,4.2,1.57v0A.67.67,0,0,1,3.55,2.25ZM3.27,3.46A.67.67,0,1,1,2.6,2.8a.67.67,0,0,1,.67.66ZM1.65,2.25a.66.66,0,1,1,.64-.68v0A.67.67,0,0,1,1.65,2.25Zm0,2.42a.65.65,0,0,1,.68.63A.64.64,0,0,1,1.69,6,.66.66,0,0,1,1,5.35v0A.66.66,0,0,1,1.65,4.67Zm1.9,0a.65.65,0,1,1,0,1.3.65.65,0,0,1-.68-.62v0A.65.65,0,0,1,3.55,4.67Zm1.91,0a.65.65,0,0,1,.68.63A.64.64,0,0,1,5.5,6a.66.66,0,0,1-.69-.62v0A.66.66,0,0,1,5.46,4.67Zm1.9,0A.65.65,0,1,1,7.4,6a.65.65,0,0,1-.68-.62v0A.65.65,0,0,1,7.36,4.67Z"/><path class="an_cls-6" d="M8.57,3.93a.67.67,0,0,1-.94,0,.63.63,0,0,1,0-.92.66.66,0,0,1,.92,0ZM0,3A.67.67,0,0,1,.94,3,.64.64,0,0,1,1,3.9a.64.64,0,0,1-.49.21h0A.67.67,0,0,1,0,3.9Z"/></svg>