<svg id="Layer_1" data-name="Layer 1" xmlns="http://www.w3.org/2000/svg" viewBox="0 0 20.01 14"><defs><style>.cls-1{fill:#f6f9fc;}.cls-2{fill:#8898aa;opacity:0.2;isolation:isolate;}.cls-3{fill:#e25950;}.cls-4{fill:#24b47e;}</style></defs><title>flag_73</title><path class="cls-1" d="M1.91,0A1.89,1.89,0,0,0,0,1.86V12.14A1.88,1.88,0,0,0,1.9,14H6.67V0Z" transform="translate(0 0)"/><path class="cls-2" d="M1.9.93A1,1,0,0,0,1,1.87V12.13a1,1,0,0,0,1,.94h8.58V14H1.9A1.89,1.89,0,0,1,0,12.13V1.87A1.89,1.89,0,0,1,1.9,0h8.58V.93Z" transform="translate(0 0)"/><path class="cls-3" d="M18.23,0A2,2,0,0,1,20,2.12V7.47H6.67V0Z" transform="translate(0 0)"/><path class="cls-4" d="M20,12.37A1.7,1.7,0,0,1,18.23,14H6.67V7.47H20Z" transform="translate(0 0)"/></svg>