<svg id="Layer_1" data-name="Layer 1" xmlns="http://www.w3.org/2000/svg" viewBox="0 0 20 14"><defs><style>.an_cls-1{fill:#fcd669;}.an_cls-2{fill:#24b47e;}.an_cls-3{fill:#e25950;}.an_cls-4{fill:#fff;}</style></defs><title>flag_76</title><path class="an_cls-1" d="M1.9,0A1.89,1.89,0,0,0,0,1.87v2.8H20V1.87A1.91,1.91,0,0,0,18.1,0Z"/><path class="an_cls-2" d="M0,4.67H20V9.33H0Z"/><path class="an_cls-3" d="M0,9.33v2.8A1.91,1.91,0,0,0,1.9,14H18.1A1.89,1.89,0,0,0,20,12.13V9.33Z"/><path class="an_cls-4" d="M13.94,5.6h-2.5a.35.35,0,0,1-.33-.24L10.33,3a.34.34,0,0,0-.66,0L8.9,5.37a.36.36,0,0,1-.34.24H6.06a.34.34,0,0,0-.35.33.35.35,0,0,0,.15.28l2,1.44A.36.36,0,0,1,8,8.05l-.77,2.33a.33.33,0,0,0,.21.43.33.33,0,0,0,.32-.05l2-1.33a.34.34,0,0,1,.41,0l2,1.33a.35.35,0,0,0,.48-.07.31.31,0,0,0,0-.31L12,8.05a.34.34,0,0,1,.12-.39l2-1.44a.35.35,0,0,0,.13-.38.37.37,0,0,0-.34-.24Z"/></svg>