<svg id="Layer_1" data-name="Layer 1" xmlns="http://www.w3.org/2000/svg" viewBox="0 0 20 14"><defs><style>.an_cls-1{fill:#f6f9fc;}.an_cls-2{fill:#e25950;}.an_cls-3{fill:#eaeef3;}</style></defs><title>flag_55</title><path class="an_cls-1" d="M1.9,0H18.1A1.89,1.89,0,0,1,20,1.87V12.13A1.89,1.89,0,0,1,18.1,14H1.9A1.89,1.89,0,0,1,0,12.13V1.87A1.89,1.89,0,0,1,1.9,0Z"/><path class="an_cls-2" d="M11.43,2.33c0,.78-1.43,2.34-1.43,2.34S8.57,3.11,8.57,2.33a1.43,1.43,0,0,1,2.86,0Z"/><path class="an_cls-3" d="M18.1.93a1,1,0,0,1,.95.94V12.13a1,1,0,0,1-.95.94H1.9A1,1,0,0,1,1,12.13V1.87a1,1,0,0,1,1-.94H18.1m0-.93H1.9A1.89,1.89,0,0,0,0,1.87V12.13A1.89,1.89,0,0,0,1.9,14H18.1A1.89,1.89,0,0,0,20,12.13V1.87A1.89,1.89,0,0,0,18.1,0Z"/><path class="an_cls-2" d="M11.59,6.64,19.7.88A1.88,1.88,0,0,0,18.1,0h-.4L9.94,5.5,1.9,0A1.89,1.89,0,0,0,.18,1.08L8.3,6.68,0,12.52a1.89,1.89,0,0,0,1.33,1.39L9.9,7.79l8.86,6.07A1.86,1.86,0,0,0,20,12.38Z"/></svg>