<svg id="Layer_1" data-name="Layer 1" xmlns="http://www.w3.org/2000/svg" viewBox="0 0 20 14"><defs><style>.an_cls-1{fill:#24b47e;}.an_cls-2{fill:#45b2e8;}.an_cls-3{fill:#fff;}.an_cls-4{fill:#e25950;}</style></defs><title>flag_24</title><path class="an_cls-1" d="M0,6.53v5.6A1.89,1.89,0,0,0,1.9,14H18.1A1.88,1.88,0,0,0,20,12.15h0V6.53Z"/><path class="an_cls-2" d="M0,1.87v5.6H20V1.87A1.89,1.89,0,0,0,18.1,0H1.9A1.89,1.89,0,0,0,0,1.87Z"/><path class="an_cls-3" d="M2.52,1.51C1.65.94,1,1.3,1,2.34v9.32c0,1,.74,1.45,1.64.93l8.84-5.12Z"/><path class="an_cls-4" d="M6.48,6.39H5.09a.2.2,0,0,1-.19-.13L4.47,5a.18.18,0,0,0-.23-.13A.17.17,0,0,0,4.11,5l-.43,1.3a.21.21,0,0,1-.19.13H2.1a.18.18,0,0,0-.2.18A.18.18,0,0,0,2,6.73l1.13.8a.21.21,0,0,1,.07.21L2.75,9a.19.19,0,0,0,.1.24.24.24,0,0,0,.2,0l1.12-.74a.2.2,0,0,1,.23,0l1.12.74a.2.2,0,0,0,.27,0,.19.19,0,0,0,0-.18L5.39,7.75a.19.19,0,0,1,.07-.22l1.12-.8a.19.19,0,0,0,.08-.21.2.2,0,0,0-.19-.13Z"/></svg>