<?xml version="1.0" encoding="utf-8"?>
<!-- Generator: Adobe Illustrator 22.0.1, SVG Export Plug-In . SVG Version: 6.00 Build 0)  -->
<svg version="1.1" id="Layer_1" xmlns="http://www.w3.org/2000/svg" xmlns:xlink="http://www.w3.org/1999/xlink" x="0px" y="0px"
	 viewBox="0 0 20 14" style="enable-background:new 0 0 20 14;" xml:space="preserve">
<style type="text/css">
	.st0{fill:#F6F9FC;}
	.st1{fill:#E25950;}
	.st2{fill:#012B7F;}
	.st3{fill:#24B47E;}
	.st4{fill:#FCD669;}
</style>
<title>flag_125</title>
<path class="st0" d="M2.9,0H16c2.2,0,4,1.8,4,4v6c0,2.2-1.8,4-4,4H2.9V0z"/>
<path class="st1" d="M9.8,4H20V1.9c0-1-0.9-1.9-1.9-1.9h-14L9.8,4z"/>
<path class="st2" d="M4.1,14h14c1,0,1.9-0.8,1.9-1.9c0,0,0,0,0,0V10H9.8L4.1,14z"/>
<path class="st3" d="M20,9.3H9.5L2.9,14h-1c-1,0-1.8-0.8-1.9-1.9V1.9C0,0.8,0.9,0,1.9,0h1l6.6,4.7H20V9.3z"/>
<path d="M0,11.2V2.8L6.2,7L0,11.2z"/>
<path class="st4" d="M0.4,2.2L0,2v0.8L6.2,7L0,11.2v0.9l0.4-0.3l6.2-4.2L7.4,7L6.6,6.4L0.4,2.2z"/>
</svg>
