<svg id="Layer_1" data-name="Layer 1" xmlns="http://www.w3.org/2000/svg" viewBox="0 0 20.01 14"><defs><style>.an_cls-1{fill:#43458b;}.an_cls-2{fill:#e25950;}.an_cls-3{fill:#fff;}.an_cls-4{fill:#24b47e;}.an_cls-5{fill:#fcd669;}</style></defs><title>flag_44</title><path class="an_cls-1" d="M1.9,0A1.88,1.88,0,0,0,0,1.85H0V7.47H20V1.87A1.89,1.89,0,0,0,18.1,0Z" transform="translate(0 0)"/><path class="an_cls-2" d="M0,7.47v4.66A1.89,1.89,0,0,0,1.9,14H18.1A1.89,1.89,0,0,0,20,12.15h0V7.47Z" transform="translate(0 0)"/><path class="an_cls-3" d="M5.71,4.67h8.58V9.33H5.71Z" transform="translate(0 0)"/><path class="an_cls-4" d="M14.19,9.33H5.81C6.24,8.27,8.1,7.47,10,7.47S13.76,8.27,14.19,9.33ZM9.05,5.6H11v.93L10,7.47l-1-.94Z" transform="translate(0 0)"/><path class="an_cls-5" d="M7.62,6.53h1v.94h-1Zm3.81,0h1v.94h-1Z" transform="translate(0 0)"/><path class="an_cls-5" d="M6.67,5.6h1v.93h-1Zm5.71,0h.95v.93h-.95Z" transform="translate(0 0)"/></svg>