<svg id="Layer_1" data-name="Layer 1" xmlns="http://www.w3.org/2000/svg" viewBox="0 0 20 14"><defs><style>.an_cls-1{fill:#217ab7;}.an_cls-2{fill:#fff;}</style></defs><title>flag_109</title><path class="an_cls-1" d="M1.9,0H18.1A1.89,1.89,0,0,1,20,1.87V12.13A1.89,1.89,0,0,1,18.1,14H1.9A1.89,1.89,0,0,1,0,12.13V1.87A1.89,1.89,0,0,1,1.9,0Z" transform="translate(0 0)"/><path class="an_cls-2" d="M13.94,5.6h-2.5a.35.35,0,0,1-.33-.24L10.33,3a.34.34,0,0,0-.43-.23A.37.37,0,0,0,9.66,3L8.89,5.37a.35.35,0,0,1-.33.24H6.06a.34.34,0,0,0-.35.33.34.34,0,0,0,.15.29l2,1.44A.33.33,0,0,1,8,8.05l-.77,2.33a.34.34,0,0,0,.22.43.33.33,0,0,0,.32-.05l2-1.33a.35.35,0,0,1,.41,0l2,1.33a.36.36,0,0,0,.49-.07.31.31,0,0,0,0-.31L12,8.05a.35.35,0,0,1,.12-.39l2-1.43a.35.35,0,0,0-.21-.63Z" transform="translate(0 0)"/></svg>