<svg id="Layer_1" data-name="Layer 1" xmlns="http://www.w3.org/2000/svg" viewBox="0 0 20 13.98"><defs><style>.an_cls-1{fill:#45b2e8;}.an_cls-2{fill:#f6f9fc;}.an_cls-3{fill:#eaeef3;}.an_cls-4{fill:#f4b32e;}</style></defs><title>flag_5</title><path class="an_cls-1" d="M1.9,0A1.88,1.88,0,0,0,0,1.88v2.8H20V1.89A1.9,1.9,0,0,0,18.1,0Z" transform="translate(0 -0.02)"/><path class="an_cls-2" d="M0,4.68H20V9.34H0Z" transform="translate(0 -0.02)"/><path class="an_cls-3" d="M0,4.68H1V9.34H0Zm19.05,0H20V9.34h-.95Z" transform="translate(0 -0.02)"/><path class="an_cls-1" d="M0,9.34v2.79A1.9,1.9,0,0,0,1.9,14H18.1A1.88,1.88,0,0,0,20,12.14V9.34Z" transform="translate(0 -0.02)"/><ellipse class="an_cls-4" cx="10" cy="6.99" rx="1.43" ry="1.4"/></svg>