<svg id="Layer_1" data-name="Layer 1" xmlns="http://www.w3.org/2000/svg" viewBox="0 0 20 14"><defs><style>.an_cls-1{fill:#f6f9fc;}.an_cls-2{fill:#24b47e;}.an_cls-3{fill:#e25950;}.an_cls-4{fill:#eaeef3;}</style></defs><title>flag_57</title><path class="an_cls-1" d="M0,4.67H20V9.33H0Z" transform="translate(0 0)"/><path d="M20,1.87A1.89,1.89,0,0,0,18.09,0H1.9A1.9,1.9,0,0,0,.64.48.31.31,0,0,1,.77.54L6.66,4.67H20Z" transform="translate(0 0)"/><path class="an_cls-2" d="M.64,13.52A1.9,1.9,0,0,0,1.9,14H18.1A1.89,1.89,0,0,0,20,12.13V9.33H6.66L.77,13.46l-.13.06Z" transform="translate(0 0)"/><path class="an_cls-3" d="M6.66,4.67.77.54A.38.38,0,0,0,.64.48,1.83,1.83,0,0,0,0,1.87V12.13a1.85,1.85,0,0,0,.64,1.39l.13,0L6.66,9.33,10,7Z" transform="translate(0 0)"/><ellipse class="an_cls-1" cx="3.33" cy="7" rx="1.43" ry="1.4"/><path class="an_cls-4" d="M19,4.67H20V9.33H19Z" transform="translate(0 0)"/></svg>