<svg id="Layer_1" data-name="Layer 1" xmlns="http://www.w3.org/2000/svg" viewBox="0 0 20 14"><defs><style>.an_cls-1,.an_cls-3{fill:#e25950;}.an_cls-2{fill:#f6f9fc;}.an_cls-3{opacity:0.1;isolation:isolate;}</style></defs><title>flag_25</title><path class="an_cls-1" d="M1.9,0H18.1A1.89,1.89,0,0,1,20,1.87V12.13A1.89,1.89,0,0,1,18.1,14H1.9A1.89,1.89,0,0,1,0,12.13V1.87A1.89,1.89,0,0,1,1.9,0Z"/><path class="an_cls-2" d="M20,8.4H8.57V14H5.71V8.4H0V5.6H5.71V0H8.57V5.6H20Z"/><path class="an_cls-3" d="M19.05,9.33V4.67H20V9.33ZM4.76,13.07H9.52V14H4.76ZM4.76,0H9.52V.93H4.76ZM0,4.67H1V9.33H0Z"/></svg>