<svg id="Layer_1" data-name="Layer 1" xmlns="http://www.w3.org/2000/svg" viewBox="0 0 20 13.99"><defs><style>.an_cls-1{fill:#e25950;}.an_cls-2{fill:#f6f9fc;}.an_cls-3{fill:#eaeef3;}</style></defs><title>flag_89</title><path class="an_cls-1" d="M1.91,0A1.87,1.87,0,0,0,0,1.86V12.14A1.88,1.88,0,0,0,1.9,14H6.67V0ZM13.33,0V14h4.76A1.89,1.89,0,0,0,20,12.14V1.86A1.88,1.88,0,0,0,18.1,0H13.33Z" transform="translate(0 -0.01)"/><path class="an_cls-2" d="M6.67,0h6.66V14H6.67Z" transform="translate(0 -0.01)"/><path class="an_cls-3" d="M6.67,14v-.93h6.66V14ZM6.67.94V0h6.66V.94Z" transform="translate(0 -0.01)"/></svg>