<svg id="Layer_1" data-name="Layer 1" xmlns="http://www.w3.org/2000/svg" viewBox="0 0 20.01 14"><defs><style>.an_cls-1{fill:#e25950;}.an_cls-2,.an_cls-3,.an_cls-4,.an_cls-5{fill:#fff;}.an_cls-2{fill-opacity:0.8;}.an_cls-3{fill-opacity:0.3;}.an_cls-4{fill-opacity:0.9;}.an_cls-6{fill:#fac92e;}</style></defs><title>flag_90</title><path class="an_cls-1" d="M20,1.86A1.88,1.88,0,0,0,18.1,0H1.9A1.91,1.91,0,0,0,.67.46L19.35,13.54a1.82,1.82,0,0,0,.66-1.4Z"/><path d="M.66.46A1.82,1.82,0,0,0,0,1.86V12.14A1.88,1.88,0,0,0,1.9,14H18.1a1.91,1.91,0,0,0,1.23-.46Z"/><path class="an_cls-2" d="M6.19,7.47a.47.47,0,1,1-.48.46A.48.48,0,0,1,6.19,7.47Z"/><path class="an_cls-3" d="M5.24,9.33a.47.47,0,0,1,0,.94.47.47,0,1,1,0-.94Z"/><path class="an_cls-4" d="M3.33,8.4a.47.47,0,1,1-.47.47A.47.47,0,0,1,3.33,8.4Z"/><path class="an_cls-4" d="M4.29,11.2a.47.47,0,1,1-.48.47A.47.47,0,0,1,4.29,11.2Z"/><path class="an_cls-5" d="M4.29,5.6a.47.47,0,1,1-.48.47A.47.47,0,0,1,4.29,5.6Z"/><path class="an_cls-6" d="M14.29,3.73V2.53c0-.52.33-.7.76-.39l2.75,2c.43.3.34.55-.19.55H15.24v1.4c0,.5-.33.68-.75.36L11.7,4.3c-.41-.31-.32-.57.2-.57Z"/></svg>