<svg id="Layer_1" data-name="Layer 1" xmlns="http://www.w3.org/2000/svg" viewBox="0 0 20 14"><defs><style>.an_cls-1{fill:#fcd669;}.an_cls-2{fill:#45b2e8;}.an_cls-3{fill:#e25950;}</style></defs><title>flag_14</title><path class="an_cls-1" d="M2.86,0H17.14A2.83,2.83,0,0,1,20,2.8v8.4A2.83,2.83,0,0,1,17.14,14H2.86A2.83,2.83,0,0,1,0,11.2V2.8A2.83,2.83,0,0,1,2.86,0Z" transform="translate(0 0)"/><path class="an_cls-2" d="M1.9,0A1.88,1.88,0,0,0,0,1.86H0V9.33L14.29,0Z" transform="translate(0 0)"/><ellipse class="an_cls-1" cx="2.86" cy="2.8" rx="0.95" ry="0.93"/><path class="an_cls-2" d="M20,12.13A1.89,1.89,0,0,1,18.1,14H5.71L20,4.67Z" transform="translate(0 0)"/><path class="an_cls-3" d="M18.1,0h-1L0,11.2v.93A1.89,1.89,0,0,0,1.9,14h1L20,2.8V1.87A1.89,1.89,0,0,0,18.1,0Z" transform="translate(0 0)"/></svg>