<svg id="Layer_1" data-name="Layer 1" xmlns="http://www.w3.org/2000/svg" viewBox="0 0 20.05 14.03"><defs><style>.an_cls-1{fill:#f6f9fc;}.an_cls-2{fill:none;stroke:#dfe5eb;}.an_cls-3{fill:#43458b;}.an_cls-4{fill:#e25950;}</style></defs><title>flag_100</title><path class="an_cls-1" d="M1.9,0A1.89,1.89,0,0,0,0,1.87V5.6H20V1.87A1.89,1.89,0,0,0,18.1,0Z" transform="translate(0.02 0.03)"/><path class="an_cls-2" d="M.48,5.13h19V1.87A1.41,1.41,0,0,0,18.1.47H1.9A1.41,1.41,0,0,0,.48,1.87Z" transform="translate(0.02 0.03)"/><path class="an_cls-3" d="M0,4.67H20V9.33H0Z" transform="translate(0.02 0.03)"/><path class="an_cls-4" d="M0,9.33v2.8A1.89,1.89,0,0,0,1.9,14H18.1A1.89,1.89,0,0,0,20,12.13V9.33Z" transform="translate(0.02 0.03)"/></svg>