<svg id="Layer_1" data-name="Layer 1" xmlns="http://www.w3.org/2000/svg" viewBox="0 0 20 14"><defs><style>.an_cls-1{fill:#e25950;}.an_cls-2{fill:#fff;}.an_cls-3{fill:#fcd669;}.an_cls-4{fill:#eaeef3;}</style></defs><title>flag_29</title><path class="an_cls-1" d="M1.9,0A1.89,1.89,0,0,0,0,1.87v2.8H20V1.87A1.89,1.89,0,0,0,18.1,0Z"/><path class="an_cls-2" d="M0,4.67H20V9.33H0Z"/><path d="M0,9.33v2.8A1.89,1.89,0,0,0,1.9,14H18.1A1.89,1.89,0,0,0,20,12.13V9.33Z"/><path d="M6.67,5.6l2.85.93L6.67,8.4Zm6.66,0V8.4L10.48,6.53ZM9.52,7.47h1V8.4h-1Z"/><path class="an_cls-3" d="M6.67,5.6l2.85.93L6.67,8.4Zm6.66,0V8.4L10.48,6.53ZM9.52,7.47h1V8.4h-1Z"/><path class="an_cls-4" d="M0,4.67H1V9.33H0Zm19.05,0H20V9.33h-.95Z"/></svg>