<svg id="Layer_1" data-name="Layer 1" xmlns="http://www.w3.org/2000/svg" viewBox="0 0 20 14"><defs><style>.an_cls-1{fill:#fcd669;}.an_cls-2{fill:#e25950;}</style></defs><title>flag_74</title><path class="an_cls-1" d="M1.9,0H18.1A1.89,1.89,0,0,1,20,1.87V12.13A1.89,1.89,0,0,1,18.1,14H1.9A1.89,1.89,0,0,1,0,12.13V1.87A1.89,1.89,0,0,1,1.9,0Z"/><path class="an_cls-2" d="M19.05,5.73,20,5.6V2.09l-.95.36L12.86,4.76l-.45-.82,4.36-3L18.12,0H11.43l-.24.93-.71,2.8h-1L8.81.93,8.57,0H1.94L3.3.93l4.35,3-.44.82L1,2.43,0,2.08l0-.24V5.6l1,.14,5.71.8v.93L1,8.27,0,8.4v3.73s0,.06,0,.09L0,12,1,11.65,7.21,9.32l.44.82L3.41,13.07,2.05,14H8.57l.24-.93.71-2.8h1l.71,2.8.24.93H18l-1.35-.93-4.25-2.93.45-.82,6.19,2.31L20,12V8.4l-.95-.13-5.72-.8V6.53Zm-9,3.6A2.33,2.33,0,1,1,12.38,7,2.36,2.36,0,0,1,10,9.33Z"/></svg>