<svg id="Layer_1" data-name="Layer 1" xmlns="http://www.w3.org/2000/svg" viewBox="0 0 20 14"><defs><style>.an_cls-1{fill:#ea2c3f;}.an_cls-2{fill:#f6f9fc;}.an_cls-3{fill:#8898aa;opacity:0.2;isolation:isolate;}.an_cls-4{fill:#e25950;}</style></defs><title>flag_104</title><path class="an_cls-1" d="M1.9,0A1.88,1.88,0,0,0,0,1.85H0V7.47H20V1.87A1.89,1.89,0,0,0,18.1,0Z" transform="translate(0 0)"/><path class="an_cls-2" d="M20,6.54v5.59A1.89,1.89,0,0,1,18.1,14H1.9A1.89,1.89,0,0,1,0,12.13V6.54Z" transform="translate(0 0)"/><path class="an_cls-3" d="M18.1,14H1.9A1.89,1.89,0,0,1,0,12.13V6.54H1v5.59a1,1,0,0,0,1,.94H18.1a1,1,0,0,0,.95-.94V6.54H20v5.59A1.89,1.89,0,0,1,18.1,14Z" transform="translate(0 0)"/><path class="an_cls-4" d="M0,7.47V1.87A1.89,1.89,0,0,1,1.9,0H18.1A1.89,1.89,0,0,1,20,1.87v5.6Z" transform="translate(0 0)"/><path class="an_cls-2" d="M4.16,3.7A2.24,2.24,0,0,0,6.4,5.91a2.87,2.87,0,0,1-3.95-.55A2.73,2.73,0,0,1,3,1.49a2.85,2.85,0,0,1,3.38,0A2.23,2.23,0,0,0,4.16,3.7Zm5.9.39a.57.57,0,0,1-.59-.54.57.57,0,0,1,1.13,0v0A.57.57,0,0,1,10.06,4.09ZM8.63,3a.56.56,0,1,1,.57-.55A.56.56,0,0,1,8.63,3ZM8.36,5.19a.57.57,0,1,1-.56-.55h0A.56.56,0,0,1,8.36,5.19ZM7.23,4.09A.56.56,0,1,1,7.23,3a.57.57,0,0,1,.57.55h0A.57.57,0,0,1,7.23,4.09Zm2.26.55a.56.56,0,1,1-.56.55.56.56,0,0,1,.56-.55Z" transform="translate(0 0)"/></svg>