<svg id="Layer_1" data-name="Layer 1" xmlns="http://www.w3.org/2000/svg" viewBox="0 0 20 13.98"><defs><style>.an_cls-1{fill:#fcd669;}.an_cls-2{fill:#24b47e;}</style></defs><title>flag_56</title><path class="an_cls-1" d="M19.26.41l-.09.07L10,5.61.83.48.74.42A1.85,1.85,0,0,0,0,1.88v.93L7.62,7,0,11.2v.94A1.82,1.82,0,0,0,.74,13.6l.09-.06L10,8.41l9.17,5.12.09.07A1.85,1.85,0,0,0,20,12.14V11.2L12.38,7,20,2.81V1.88A1.84,1.84,0,0,0,19.26.41Z" transform="translate(0 -0.02)"/><path class="an_cls-2" d="M10,5.61,19.17.48l.09-.06A1.88,1.88,0,0,0,18.1,0H1.9A1.93,1.93,0,0,0,.74.41L.83.48Zm0,2.8L.83,13.53l-.09.07A1.88,1.88,0,0,0,1.9,14H18.1a1.88,1.88,0,0,0,1.16-.4l-.09-.06Z" transform="translate(0 -0.02)"/><path d="M0,2.81V11.2L7.62,7ZM20,11.2V2.81L12.38,7Z" transform="translate(0 -0.02)"/></svg>