<svg id="Layer_1" data-name="Layer 1" xmlns="http://www.w3.org/2000/svg" viewBox="0 0 20 14"><defs><style>.an_cls-1{fill:#e25950;}.an_cls-2{fill:#f6f9fc;}</style></defs><title>flag_49</title><path class="an_cls-1" d="M1.9,0H18.1A1.89,1.89,0,0,1,20,1.87V12.13A1.89,1.89,0,0,1,18.1,14H1.9A1.89,1.89,0,0,1,0,12.13V1.87A1.89,1.89,0,0,1,1.9,0Z"/><path class="an_cls-2" d="M9.11,12.11l1.14-1.51L8.37,8.29l2.72-1.47,2.57.59.47-.81.61-2.89.79-.09.24-.41-1.86,0-.6,2.88-2.38-.81L10,2.51H9.06L6.2,3.44l-.48-.62H5.25l1,1.57,2.86-.95.47,2.35L7.15,7.73l.36.95L9.1,10.54l.25.38-.44.65.2.54Z"/></svg>