<svg id="Layer_1" data-name="Layer 1" xmlns="http://www.w3.org/2000/svg" viewBox="0 0 20 14"><defs><style>.an_cls-1{fill:#e25950;}.an_cls-2{fill:#f6f9fc;}.an_cls-3{fill:#24b47e;}.an_cls-4{fill:#eaeef3;}</style></defs><title>flag_66</title><path class="an_cls-1" d="M1.9,0A1.88,1.88,0,0,0,0,1.86V3.73H20V1.87A1.89,1.89,0,0,0,18.1,0Z" transform="translate(0 0)"/><path class="an_cls-2" d="M0,3.73H20v6.54H0Z" transform="translate(0 0)"/><path class="an_cls-1" d="M0,10.27v1.86A1.89,1.89,0,0,0,1.9,14H18.1A1.88,1.88,0,0,0,20,12.14V10.27Z" transform="translate(0 0)"/><path class="an_cls-3" d="M10.48,8.4v.93h-1V8.4H7.62L10,4.67,12.38,8.4Z" transform="translate(0 0)"/><path class="an_cls-4" d="M0,3.73H1v6.54H0Zm19.05,0H20v6.54h-.95Z" transform="translate(0 0)"/></svg>