<svg id="Layer_1" data-name="Layer 1" xmlns="http://www.w3.org/2000/svg" viewBox="0 0 20 14"><defs><style>.an_cls-1{fill:#ca0814;}.an_cls-2{fill:#fff;}.an_cls-3{fill:#24b47e;}.an_cls-4{fill:#fcd669;}.an_cls-5{fill:#eaeef3;}</style></defs><title>flag_113</title><path class="an_cls-1" d="M1.9,0A1.89,1.89,0,0,0,0,1.87v2.8H20V1.87A1.89,1.89,0,0,0,18.1,0Z"/><path class="an_cls-2" d="M0,4.67H20V9.33H0Z"/><path class="an_cls-3" d="M0,9.33v2.8A1.89,1.89,0,0,0,1.9,14H18.1A1.89,1.89,0,0,0,20,12.13V9.33Z"/><path d="M5.71,7.93a.48.48,0,1,1,.48.47A.48.48,0,0,1,5.71,7.93ZM7.62,7a.48.48,0,1,1,.48.47A.47.47,0,0,1,7.62,7Zm1.9-.93a.48.48,0,1,1,.48.46A.48.48,0,0,1,9.52,6.07ZM11.43,7a.48.48,0,1,1,.47.47A.47.47,0,0,1,11.43,7Zm1.9.93a.48.48,0,1,1,.48.47A.48.48,0,0,1,13.33,7.93Zm-3.81,0A.48.48,0,1,1,10,8.4.48.48,0,0,1,9.52,7.93Z"/><path class="an_cls-4" d="M5.71,7.93a.48.48,0,1,1,.48.47A.48.48,0,0,1,5.71,7.93ZM7.62,7a.48.48,0,1,1,.48.47A.47.47,0,0,1,7.62,7Zm1.9-.93a.48.48,0,1,1,.48.46A.48.48,0,0,1,9.52,6.07ZM11.43,7a.48.48,0,1,1,.47.47A.47.47,0,0,1,11.43,7Zm1.9.93a.48.48,0,1,1,.48.47A.48.48,0,0,1,13.33,7.93Zm-3.81,0A.48.48,0,1,1,10,8.4.48.48,0,0,1,9.52,7.93Z"/><path class="an_cls-5" d="M0,4.67H1V9.33H0Zm19.05,0H20V9.33h-.95Z"/></svg>