<svg id="Layer_1" data-name="Layer 1" xmlns="http://www.w3.org/2000/svg" viewBox="0 0 20 14"><defs><style>.an_cls-1{fill:#43458b;}.an_cls-2{fill:#f6f9fc;}.an_cls-3{fill:#e25950;}</style></defs><title>flag_36</title><path class="an_cls-1" d="M19.93,12.6H17.62V14H2.38V12.6H.07A1.49,1.49,0,0,1,0,12.13V1.87A1.49,1.49,0,0,1,.07,1.4H2.38V0H17.62V1.4h2.31a1.49,1.49,0,0,1,.07.47V12.13A1.49,1.49,0,0,1,19.93,12.6Z"/><path class="an_cls-2" d="M16.82,0H18.1A1.89,1.89,0,0,1,20,1.87v.42L16.79,4.67H20V9.33H16.87L20,11.65v.48A1.89,1.89,0,0,1,18.1,14H16.9l-4.52-3.34V14H7.62V10.66L3.1,14H1.9A1.89,1.89,0,0,1,0,12.13v-.48L3.13,9.33H0V4.67H3.21L0,2.29V1.87A1.89,1.89,0,0,1,1.9,0H3.18L7.62,3.28V0h4.76V3.28Z"/><path class="an_cls-3" d="M11.43,8.4V14H8.57V8.4H0V5.6H8.57V0h2.86V5.6H20V8.4Zm.47-3.27v-.2L18.5.05a1.89,1.89,0,0,1,1.09.67l-6,4.41ZM.2,1.05A1.84,1.84,0,0,1,1.06.21L7.71,5.13h-2ZM8.1,8.87v.2L1.5,14a1.89,1.89,0,0,1-1.09-.67l6-4.41ZM19.8,13a1.8,1.8,0,0,1-.86.84L12.29,8.87h2Z"/></svg>