<svg id="Layer_1" data-name="Layer 1" xmlns="http://www.w3.org/2000/svg" viewBox="0 0 20 14"><defs><style>.an_cls-1{fill:#e25950;}.an_cls-2{fill:#24b47e;}.an_cls-3{fill:#f6f9fc;}.an_cls-4{fill:#333;}.an_cls-5{fill:#eaeef3;}</style></defs><title>flag_2</title><path class="an_cls-1" d="M1.91,0A1.89,1.89,0,0,0,0,1.86V12.14A1.88,1.88,0,0,0,1.9,14H4.76V0Z" transform="translate(0 0)"/><path class="an_cls-2" d="M4.76,0V4.67H20V1.87A1.89,1.89,0,0,0,18.1,0Z" transform="translate(0 0)"/><path class="an_cls-3" d="M4.76,4.67H20V9.33H4.76Z" transform="translate(0 0)"/><path class="an_cls-4" d="M4.76,9.33V14H18.1A1.89,1.89,0,0,0,20,12.13V9.33Z" transform="translate(0 0)"/><path class="an_cls-5" d="M19.05,4.67H20V9.33h-.95Z" transform="translate(0 0)"/></svg>