<svg id="Layer_1" data-name="Layer 1" xmlns="http://www.w3.org/2000/svg" viewBox="0 0 20.02 14.03"><defs><style>.an_cls-1{fill:#f6f9fc;}.an_cls-2{fill:none;stroke:#eaeef3;}.an_cls-3{fill:#e25950;}.an_cls-4{fill:#24b47e;}.an_cls-5{fill:#fff;}</style></defs><title>flag_87</title><path class="an_cls-1" d="M3.81,0V5.6H20V1.87A1.88,1.88,0,0,0,18.1,0Z" transform="translate(0 0.03)"/><path class="an_cls-2" d="M19.52,7V1.87A1.41,1.41,0,0,0,18.1.47H1.9" transform="translate(0 0.03)"/><path class="an_cls-3" d="M4.76,4.67V0H1.91A1.88,1.88,0,0,0,0,1.86V12.14A1.88,1.88,0,0,0,1.9,14H4.76V9.34H20V4.67Z" transform="translate(0 0.03)"/><path class="an_cls-4" d="M4.76,9.34V14H18.1A1.89,1.89,0,0,0,20,12.13V9.34Z" transform="translate(0 0.03)"/><path class="an_cls-5" d="M2.38,1.87a.48.48,0,0,1,.48.47.48.48,0,0,1-1,0A.48.48,0,0,1,2.38,1.87Z" transform="translate(0 0.03)"/></svg>