<svg id="Layer_1" data-name="Layer 1" xmlns="http://www.w3.org/2000/svg" viewBox="0 0 20 14"><defs><style>.an_cls-1{fill:#f6f9fc;}.an_cls-2,.an_cls-3{fill:#e25950;}.an_cls-2{opacity:0.1;isolation:isolate;}</style></defs><title>flag_13</title><path class="an_cls-1" d="M4.76,0H15.24V14H4.76Z" transform="translate(0 0)"/><path class="an_cls-2" d="M15.24.93H4.76V0H15.24ZM4.76,13.07H15.24V14H4.76Z" transform="translate(0 0)"/><path class="an_cls-3" d="M9.57,10.24V8.4H8.23l.17-.77L6.67,7.37l.61-1.12L6.73,4.77l1.52.59.45-1.7L9.36,4,10,2.8,10.72,4l.6-.27.28,1.64,1.69-.52L12.77,6.2l.57,1.16-1.67.27.15.75H10.45v1.85ZM5.71,14H1.9A1.89,1.89,0,0,1,0,12.13V1.87A1.89,1.89,0,0,1,1.9,0H5.71ZM18.1,14H14.29V0H18.1A1.89,1.89,0,0,1,20,1.87V12.13A1.89,1.89,0,0,1,18.1,14Z" transform="translate(0 0)"/></svg>