<svg id="Layer_1" data-name="Layer 1" xmlns="http://www.w3.org/2000/svg" viewBox="0 0 20 14"><defs><style>.an_cls-1{fill:#f6f9fc;}.an_cls-2{fill:#e25950;}.an_cls-3{fill:#43458b;}.an_cls-4{fill:#24b47e;}.an_cls-5{fill:#fcd669;}</style></defs><title>flag_80</title><path class="an_cls-1" d="M2.86,14H5.71L20,4.67V2.8ZM14.29,0,0,9.33V11.2L17.14,0Z"/><path class="an_cls-2" d="M17.14,0,0,11.2A2.83,2.83,0,0,0,2.86,14L20,2.8A2.83,2.83,0,0,0,17.14,0Z"/><path class="an_cls-3" d="M2.86,0A2.83,2.83,0,0,0,0,2.8V9.33L14.29,0Zm-1,3.73V1.87H3.81V3.73Z"/><path class="an_cls-4" d="M17.14,14A2.83,2.83,0,0,0,20,11.2V4.67L5.71,14Z"/><path class="an_cls-5" d="M1.9,1.87H3.81V3.73H1.9Z"/></svg>