<svg id="Layer_1" data-name="Layer 1" xmlns="http://www.w3.org/2000/svg" viewBox="0 0 20 14"><defs><style>.an_cls-1{fill:#f6f9fc;}.an_cls-2{fill:#8898aa;opacity:0.2;isolation:isolate;}.an_cls-3{fill:#b1372f;}</style></defs><title>flag_98</title><path class="an_cls-1" d="M1.9,0H18.1A1.89,1.89,0,0,1,20,1.87V12.13A1.89,1.89,0,0,1,18.1,14H1.9A1.89,1.89,0,0,1,0,12.13V1.87A1.89,1.89,0,0,1,1.9,0Z" transform="translate(0 0)"/><path class="an_cls-2" d="M18.1,14H1.9A1.89,1.89,0,0,1,0,12.13V1.87A1.89,1.89,0,0,1,1.9,0H18.1A1.89,1.89,0,0,1,20,1.87V12.13A1.89,1.89,0,0,1,18.1,14Zm.95-12.13A1,1,0,0,0,18.1.94H1.9A1,1,0,0,0,1,1.87V12.13a1,1,0,0,0,1,.94H18.1a1,1,0,0,0,.95-.94Z" transform="translate(0 0)"/><path class="an_cls-3" d="M8.57,14H6.67l-1-.47,1.91-.93-1.91-.93,1.91-.94L5.71,9.8l1.91-.93L5.71,7.94,7.62,7,5.71,6.07l1.91-.93L5.71,4.2l1.91-.93L5.71,2.34,7.62,1.4,5.71.47l1-.47H18.09A1.89,1.89,0,0,1,20,1.86h0V12.14A1.89,1.89,0,0,1,18.09,14H8.57Z" transform="translate(0 0)"/></svg>