<svg id="Layer_1" data-name="Layer 1" xmlns="http://www.w3.org/2000/svg" viewBox="0 0 20 14"><defs><style>.an_cls-1{fill:#1cafc8;}.an_cls-2{fill:#fcd669;}.an_cls-3{fill:#047a9d;fill-opacity:0.2;opacity:0.78;isolation:isolate;}</style></defs><title>flag_64</title><path class="an_cls-1" d="M1.9,0H18.1A1.89,1.89,0,0,1,20,1.87V12.13A1.89,1.89,0,0,1,18.1,14H1.9A1.89,1.89,0,0,1,0,12.13V1.87A1.89,1.89,0,0,1,1.9,0Z"/><ellipse class="an_cls-2" cx="10" cy="7" rx="3.33" ry="3.27"/><path class="an_cls-3" d="M1,2.8H4.76v8.4H1Z"/><path class="an_cls-2" d="M1.9,3.73H3.81v.94H1.9Zm0,1.87H3.81v.93H1.9Zm0,1.87H3.81V8.4H1.9Zm0,1.86H3.81v.94H1.9Z"/></svg>