<svg id="Layer_1" data-name="Layer 1" xmlns="http://www.w3.org/2000/svg" viewBox="0 0 20 14"><defs><style>.an_cls-1{fill:#24b47e;}.an_cls-2{fill:#fff;}</style></defs><title>flag_102</title><path class="an_cls-1" d="M1.9,0H18.1A1.89,1.89,0,0,1,20,1.87V12.13A1.89,1.89,0,0,1,18.1,14H1.9A1.89,1.89,0,0,1,0,12.13V1.87A1.89,1.89,0,0,1,1.9,0Z"/><path class="an_cls-2" d="M14.29,9.33h1l-.48.94h-.47v.93l-1-.47v-.46H7.14L4.76,9.33h8.57V8.87l1-.47Z"/><rect class="an_cls-2" x="4.94" y="3.81" width="2.73" height="2.73"/><rect class="an_cls-2" x="8.64" y="3.81" width="2.73" height="2.73"/><rect class="an_cls-2" x="12.37" y="3.81" width="2.73" height="2.73"/></svg>