<svg id="Layer_1" data-name="Layer 1" xmlns="http://www.w3.org/2000/svg" viewBox="0 0 20 14"><defs><style>.an_cls-1{fill:#fcd669;}.an_cls-2{fill:#e25950;}.an_cls-3{fill:#43458b;}.an_cls-4{fill:#fff;}</style></defs><title>flag_121</title><path class="an_cls-1" d="M1.9,0A1.89,1.89,0,0,0,0,1.87v2.8H20V1.87A1.89,1.89,0,0,0,18.09,0Z"/><path class="an_cls-2" d="M0,9.33v2.8A1.89,1.89,0,0,0,1.9,14H18.1A1.89,1.89,0,0,0,20,12.13V9.33Z"/><path class="an_cls-3" d="M0,4.67H20v5.6H0Z"/><path class="an_cls-4" d="M5.71,8.87a.48.48,0,1,1,.48.46A.47.47,0,0,1,5.71,8.87ZM6.66,7a.48.48,0,1,1,.48.47A.48.48,0,0,1,6.66,7Zm2.86-.93a.48.48,0,1,1,.48.46A.47.47,0,0,1,9.52,6.07ZM12.38,7a.47.47,0,0,1,.47-.47.47.47,0,1,1,0,.94A.47.47,0,0,1,12.38,7Zm.95,1.87a.48.48,0,1,1,.47.46A.47.47,0,0,1,13.33,8.87Z"/></svg>