<svg id="Layer_1" data-name="Layer 1" xmlns="http://www.w3.org/2000/svg" viewBox="0 0 19.98 14"><defs><style>.an_cls-1{fill:#24b47e;}.an_cls-2{fill:#fcd669;}.an_cls-3{fill:#43458b;}.an_cls-4{fill:#fff;}</style></defs><title>flag_12</title><path class="an_cls-1" d="M1.92,0H18.1A1.89,1.89,0,0,1,20,1.87V12.13A1.89,1.89,0,0,1,18.1,14H1.92A1.89,1.89,0,0,1,0,12.13V1.87A1.89,1.89,0,0,1,1.92,0Z" transform="translate(-0.02)"/><path class="an_cls-2" d="M10.49,1.87l8.56,5.6-8.56,5.6L1.92,7.47Z" transform="translate(-0.02)"/><path class="an_cls-3" d="M6.73,6.53a3.26,3.26,0,0,0,2.76,3.7,3.38,3.38,0,0,0,2.68-.76A8.25,8.25,0,0,0,6.73,6.53Zm6.2,2a3.22,3.22,0,0,0-1.4-4.39A3.34,3.34,0,0,0,7.12,5.41,9.4,9.4,0,0,1,12.93,8.53Z" transform="translate(-0.02)"/><path class="an_cls-4" d="M7.12,5.41a3.25,3.25,0,0,0-.39,1.12,8.23,8.23,0,0,1,5.44,2.94,3.15,3.15,0,0,0,.76-.94A9.4,9.4,0,0,0,7.12,5.41Z" transform="translate(-0.02)"/></svg>