<svg id="Layer_1" data-name="Layer 1" xmlns="http://www.w3.org/2000/svg" viewBox="0 0 20 14"><defs><style>.an_cls-1{fill:#e25950;}.an_cls-2{fill:#fff;}</style></defs><title>flag_115</title><path class="an_cls-1" d="M1.9,0H18.1A1.89,1.89,0,0,1,20,1.87V12.13A1.89,1.89,0,0,1,18.1,14H1.9A1.89,1.89,0,0,1,0,12.13V1.87A1.89,1.89,0,0,1,1.9,0Z" transform="translate(0 0)"/><path class="an_cls-2" d="M9,2.9A4.06,4.06,0,0,0,5.81,7.74a4.14,4.14,0,0,0,3.81,3.19A4.32,4.32,0,0,1,4.09,8.5,4.18,4.18,0,0,1,6.58,3.08,4.36,4.36,0,0,1,9,2.9Z" transform="translate(0 0)"/><ellipse class="an_cls-2" cx="10.95" cy="7" rx="1.43" ry="1.4"/></svg>