<svg id="Layer_1" data-name="Layer 1" xmlns="http://www.w3.org/2000/svg" viewBox="0 0 20 14.02"><defs><style>.an_cls-1{fill:#fcd669;}.an_cls-2{fill:#24b47e;}.an_cls-3{fill:#45b2e8;}</style></defs><title>flag_117</title><path class="an_cls-1" d="M5.71,14,20,4.65V2.79L2.86,14ZM14.29,0,0,9.33V11.2L17.14,0Z" transform="translate(0 0.02)"/><path class="an_cls-2" d="M2.86,0h-1A1.88,1.88,0,0,0,0,1.84H0V9.33L14.29,0Z" transform="translate(0 0.02)"/><path class="an_cls-3" d="M5.71,14H18.1A1.89,1.89,0,0,0,20,12.13V4.65Z" transform="translate(0 0.02)"/><path d="M18.1,0h-1L0,11.2v.93A1.89,1.89,0,0,0,1.9,14h1L20,2.79V1.85A1.89,1.89,0,0,0,18.1,0Z" transform="translate(0 0.02)"/></svg>