<svg id="Layer_1" data-name="Layer 1" xmlns="http://www.w3.org/2000/svg" viewBox="0 0 20 14"><defs><style>.an_cls-1,.an_cls-3{fill:#e25950;}.an_cls-2{fill:#f6f9fc;}.an_cls-3{opacity:0.2;isolation:isolate;}.an_cls-4{fill:#555abf;}.an_cls-5{fill:#fcd669;}</style></defs><title>flag_79</title><path class="an_cls-1" d="M18.1,14H1.9A1.89,1.89,0,0,1,0,12.13V5.6H7.62V0H18.1A1.89,1.89,0,0,1,20,1.87V12.13A1.89,1.89,0,0,1,18.1,14Z"/><path class="an_cls-2" d="M0,10.27H20v.93H0ZM0,8.4H20v.93H0ZM0,6.53H20v.94H0ZM7.62,4.67H20V5.6H7.62Zm0-1.87H20v.93H7.62Zm0-1.87H19.74a1.85,1.85,0,0,1,.26.94H7.62ZM19.74,13.07H.26A1.85,1.85,0,0,1,0,12.13H20A1.85,1.85,0,0,1,19.74,13.07Z"/><path class="an_cls-3" d="M18.1,14H1.9A1.89,1.89,0,0,1,0,12.13V5.6H1v6.53a1,1,0,0,0,1,.94H18.1a1,1,0,0,0,.95-.94V1.87A1,1,0,0,0,18.1.93H7.62V0H18.1A1.89,1.89,0,0,1,20,1.87V12.13A1.89,1.89,0,0,1,18.1,14Z"/><path class="an_cls-4" d="M9.52,0H1.9A1.89,1.89,0,0,0,0,1.87V9.33H9.52Z"/><path class="an_cls-5" d="M6.19,7.23A2.57,2.57,0,1,1,6.1,2.1a2.64,2.64,0,0,1,1.84.7A3.38,3.38,0,0,0,3.3,2a3.22,3.22,0,0,0-.83,4.54,3.35,3.35,0,0,0,2.77,1.4,3.28,3.28,0,0,0,2.7-1.4A2.63,2.63,0,0,1,6.19,7.23Z"/><ellipse class="an_cls-5" cx="7.14" cy="4.67" rx="0.95" ry="0.93"/></svg>