<svg id="Layer_1" data-name="Layer 1" xmlns="http://www.w3.org/2000/svg" viewBox="0 0 20 14"><defs><style>.an_cls-1{fill:#e25950;}.an_cls-2{fill:#f9f9f9;}.an_cls-3{fill:#eaeef3;}.an_cls-4{fill:#555abf;}</style></defs><title>flag_112</title><path class="an_cls-1" d="M20,2.8H0V1.87A1.89,1.89,0,0,1,1.9,0H18.1A1.89,1.89,0,0,1,20,1.87Z" transform="translate(0 0)"/><path class="an_cls-2" d="M0,2.8H20V4.67H0Z" transform="translate(0 0)"/><path class="an_cls-3" d="M0,2.8H1V4.67H0Z" transform="translate(0 0)"/><path class="an_cls-2" d="M0,9.33H20V11.2H0Z" transform="translate(0 0)"/><path class="an_cls-1" d="M0,11.2H20v.93A1.89,1.89,0,0,1,18.1,14H1.9A1.89,1.89,0,0,1,0,12.13Z" transform="translate(0 0)"/><path class="an_cls-4" d="M0,4.67H20V9.33H0Z" transform="translate(0 0)"/><path class="an_cls-3" d="M0,9.33H1V11.2H0ZM19.05,2.8H20V4.67h-.95Zm0,6.53H20V11.2h-.95Z" transform="translate(0 0)"/></svg>