<svg id="Layer_1" data-name="Layer 1" xmlns="http://www.w3.org/2000/svg" viewBox="0 0 20.05 14.07"><defs><style>.an_cls-1{fill:#f7fafc;}.an_cls-2{fill:none;stroke:#e6e9ed;}.an_cls-3{fill:#e25950;}.an_cls-4{fill:#217ab7;}</style></defs><title>flag_88</title><path class="an_cls-1" d="M1.9,0A1.88,1.88,0,0,0,0,1.86H0V7.47H10.48V0Z" transform="translate(0.02 0.03)"/><path class="an_cls-2" d="M.48,7H10V.47H1.9A1.4,1.4,0,0,0,.48,1.86h0Z" transform="translate(0.02 0.03)"/><path class="an_cls-1" d="M9.52,6.53V14H18.1A1.88,1.88,0,0,0,20,12.14h0V6.53Z" transform="translate(0.02 0.03)"/><path class="an_cls-2" d="M10,7v6.53h8.1a1.4,1.4,0,0,0,1.42-1.39h0V7Z" transform="translate(0.02 0.03)"/><path class="an_cls-3" d="M16.94,9.63H15.85a.15.15,0,0,1-.15-.1l-.34-1a.15.15,0,0,0-.19-.1.17.17,0,0,0-.1.1l-.34,1a.15.15,0,0,1-.14.1h-1.1a.16.16,0,0,0-.16.15.15.15,0,0,0,.07.12l.89.63a.16.16,0,0,1,.05.17l-.34,1a.16.16,0,0,0,.1.19.17.17,0,0,0,.14,0l.89-.59a.15.15,0,0,1,.18,0l.89.59a.16.16,0,0,0,.21,0,.14.14,0,0,0,0-.14l-.34-1a.15.15,0,0,1,.06-.17L17,9.9a.14.14,0,0,0,.06-.17.15.15,0,0,0-.15-.1Z" transform="translate(0.02 0.03)"/><path class="an_cls-4" d="M6.43,3.12H5.34A.14.14,0,0,1,5.2,3L4.86,2a.14.14,0,0,0-.19-.09A.14.14,0,0,0,4.58,2L4.24,3a.15.15,0,0,1-.14.1H3a.15.15,0,0,0-.15.15.14.14,0,0,0,.06.12L3.8,4a.14.14,0,0,1,.05.16l-.33,1a.13.13,0,0,0,.09.18.14.14,0,0,0,.14,0l.88-.58a.19.19,0,0,1,.18,0l.87.58a.16.16,0,0,0,.22,0,.2.2,0,0,0,0-.13l-.34-1A.13.13,0,0,1,5.64,4l.87-.63a.14.14,0,0,0,.06-.17.15.15,0,0,0-.14-.1ZM0,7.47v4.66A1.89,1.89,0,0,0,1.9,14h8.58V7.47Z" transform="translate(0.02 0.03)"/><path class="an_cls-3" d="M9.52,0V7.47H20V1.87A1.89,1.89,0,0,0,18.1,0Z" transform="translate(0.02 0.03)"/></svg>